%TF.GenerationSoftware,KiCad,Pcbnew,(5.1.6)-1*%
%TF.CreationDate,2021-01-28T02:18:39-06:00*%
%TF.ProjectId,tool_checkout_cabinet_modules,746f6f6c-5f63-4686-9563-6b6f75745f63,rev?*%
%TF.SameCoordinates,Original*%
%TF.FileFunction,Soldermask,Bot*%
%TF.FilePolarity,Negative*%
%FSLAX46Y46*%
G04 Gerber Fmt 4.6, Leading zero omitted, Abs format (unit mm)*
G04 Created by KiCad (PCBNEW (5.1.6)-1) date 2021-01-28 02:18:39*
%MOMM*%
%LPD*%
G01*
G04 APERTURE LIST*
%ADD10O,1.700000X1.700000*%
%ADD11R,1.700000X1.700000*%
%ADD12C,3.200000*%
%ADD13C,4.000000*%
%ADD14C,0.100000*%
%ADD15C,1.524000*%
%ADD16R,1.524000X1.524000*%
%ADD17C,3.000000*%
%ADD18R,3.000000X3.000000*%
G04 APERTURE END LIST*
D10*
%TO.C,J6-ALT*%
X212598000Y-132588000D03*
D11*
X212598000Y-130048000D03*
%TD*%
D10*
%TO.C,J1-ALT*%
X201168000Y-109728000D03*
D11*
X201168000Y-107188000D03*
%TD*%
D10*
%TO.C,J5-ALT*%
X168148000Y-131572000D03*
D11*
X168148000Y-129032000D03*
%TD*%
D12*
%TO.C,REF\u002A\u002A*%
X211709000Y-51562000D03*
%TD*%
%TO.C,REF\u002A\u002A*%
X163830000Y-51562000D03*
%TD*%
%TO.C,REF\u002A\u002A*%
X207010000Y-143002000D03*
%TD*%
%TO.C,REF\u002A\u002A*%
X169164000Y-141478000D03*
%TD*%
D13*
%TO.C,A1*%
X190754000Y-115062000D03*
X190754000Y-105918000D03*
D14*
G36*
X175220539Y-117040353D02*
G01*
X175028040Y-117002063D01*
X174840220Y-116945088D01*
X174658890Y-116869979D01*
X174485795Y-116777457D01*
X174322601Y-116668415D01*
X174170882Y-116543902D01*
X174032098Y-116405118D01*
X173907585Y-116253399D01*
X173798543Y-116090205D01*
X173706021Y-115917110D01*
X173630912Y-115735780D01*
X173573937Y-115547960D01*
X173535647Y-115355461D01*
X173516409Y-115160135D01*
X173516409Y-114963865D01*
X173535647Y-114768539D01*
X173573937Y-114576040D01*
X173630912Y-114388220D01*
X173706021Y-114206890D01*
X173798543Y-114033795D01*
X173907585Y-113870601D01*
X174032098Y-113718882D01*
X174170882Y-113580098D01*
X174322601Y-113455585D01*
X174485795Y-113346543D01*
X174658890Y-113254021D01*
X174840220Y-113178912D01*
X175028040Y-113121937D01*
X175220539Y-113083647D01*
X175415865Y-113064409D01*
X175612135Y-113064409D01*
X175807461Y-113083647D01*
X175999960Y-113121937D01*
X176187780Y-113178912D01*
X176369110Y-113254021D01*
X176542205Y-113346543D01*
X176705399Y-113455585D01*
X176857118Y-113580098D01*
X176995902Y-113718882D01*
X177120415Y-113870601D01*
X177229457Y-114033795D01*
X177321979Y-114206890D01*
X177397088Y-114388220D01*
X177454063Y-114576040D01*
X177492353Y-114768539D01*
X177511591Y-114963865D01*
X177511591Y-115160135D01*
X177492353Y-115355461D01*
X177454063Y-115547960D01*
X177397088Y-115735780D01*
X177321979Y-115917110D01*
X177229457Y-116090205D01*
X177120415Y-116253399D01*
X176995902Y-116405118D01*
X176857118Y-116543902D01*
X176705399Y-116668415D01*
X176542205Y-116777457D01*
X176369110Y-116869979D01*
X176187780Y-116945088D01*
X175999960Y-117002063D01*
X175807461Y-117040353D01*
X175612135Y-117059591D01*
X175415865Y-117059591D01*
X175220539Y-117040353D01*
G37*
D13*
X175514000Y-105918000D03*
%TD*%
D15*
%TO.C,U1*%
X200898000Y-55810000D03*
X200898000Y-58350000D03*
X200898000Y-60890000D03*
X200898000Y-63430000D03*
X200898000Y-65970000D03*
X200898000Y-68510000D03*
X200898000Y-71050000D03*
X200898000Y-73590000D03*
X200898000Y-76130000D03*
X200898000Y-78670000D03*
X200898000Y-81210000D03*
X200898000Y-83750000D03*
X200898000Y-86290000D03*
X200898000Y-88830000D03*
X200898000Y-91370000D03*
X175498000Y-91370000D03*
X175498000Y-88830000D03*
X175498000Y-86290000D03*
X175498000Y-83750000D03*
X175498000Y-81210000D03*
X175498000Y-78670000D03*
X175498000Y-76130000D03*
X175498000Y-73590000D03*
X175498000Y-71050000D03*
X175498000Y-68510000D03*
X175498000Y-65970000D03*
X175498000Y-63430000D03*
X175498000Y-60890000D03*
X175498000Y-58350000D03*
D16*
X175498000Y-55810000D03*
%TD*%
D17*
%TO.C,J1*%
X206756000Y-119888000D03*
D18*
X206756000Y-114808000D03*
%TD*%
D17*
%TO.C,J2*%
X179832000Y-141732000D03*
D18*
X195072000Y-141732000D03*
D17*
X184912000Y-141732000D03*
X189992000Y-141732000D03*
%TD*%
D10*
%TO.C,J3*%
X169164000Y-104140000D03*
X169164000Y-101600000D03*
X169164000Y-99060000D03*
X169164000Y-96520000D03*
X169164000Y-93980000D03*
X169164000Y-91440000D03*
X169164000Y-88900000D03*
X169164000Y-86360000D03*
X169164000Y-83820000D03*
X169164000Y-81280000D03*
X169164000Y-78740000D03*
X169164000Y-76200000D03*
X169164000Y-73660000D03*
X169164000Y-71120000D03*
X169164000Y-68580000D03*
X169164000Y-66040000D03*
X169164000Y-63500000D03*
X169164000Y-60960000D03*
X169164000Y-58420000D03*
D11*
X169164000Y-55880000D03*
%TD*%
D10*
%TO.C,J4*%
X207518000Y-55880000D03*
X207518000Y-58420000D03*
X207518000Y-60960000D03*
X207518000Y-63500000D03*
X207518000Y-66040000D03*
X207518000Y-68580000D03*
X207518000Y-71120000D03*
X207518000Y-73660000D03*
X207518000Y-76200000D03*
X207518000Y-78740000D03*
X207518000Y-81280000D03*
X207518000Y-83820000D03*
X207518000Y-86360000D03*
X207518000Y-88900000D03*
X207518000Y-91440000D03*
X207518000Y-93980000D03*
X207518000Y-96520000D03*
X207518000Y-99060000D03*
X207518000Y-101600000D03*
D11*
X207518000Y-104140000D03*
%TD*%
D17*
%TO.C,J5*%
X168148000Y-117348000D03*
D18*
X168148000Y-122428000D03*
%TD*%
D17*
%TO.C,J6*%
X206756000Y-134112000D03*
D18*
X206756000Y-129032000D03*
%TD*%
M02*
