%TF.GenerationSoftware,KiCad,Pcbnew,(5.1.6)-1*%
%TF.CreationDate,2021-01-28T02:18:38-06:00*%
%TF.ProjectId,tool_checkout_cabinet_modules,746f6f6c-5f63-4686-9563-6b6f75745f63,rev?*%
%TF.SameCoordinates,Original*%
%TF.FileFunction,Paste,Top*%
%TF.FilePolarity,Positive*%
%FSLAX46Y46*%
G04 Gerber Fmt 4.6, Leading zero omitted, Abs format (unit mm)*
G04 Created by KiCad (PCBNEW (5.1.6)-1) date 2021-01-28 02:18:38*
%MOMM*%
%LPD*%
G01*
G04 APERTURE LIST*
%ADD10C,0.010000*%
%ADD11R,3.020000X0.970000*%
%ADD12R,1.520000X1.500000*%
%ADD13R,2.200000X3.100000*%
%ADD14R,0.900000X0.800000*%
G04 APERTURE END LIST*
D10*
%TO.C,Q2*%
G36*
X195066000Y-125518000D02*
G01*
X195066000Y-127238000D01*
X193706000Y-127238000D01*
X193706000Y-125518000D01*
X195066000Y-125518000D01*
G37*
X195066000Y-125518000D02*
X195066000Y-127238000D01*
X193706000Y-127238000D01*
X193706000Y-125518000D01*
X195066000Y-125518000D01*
G36*
X197176000Y-125518000D02*
G01*
X197176000Y-127238000D01*
X195816000Y-127238000D01*
X195816000Y-125518000D01*
X197176000Y-125518000D01*
G37*
X197176000Y-125518000D02*
X197176000Y-127238000D01*
X195816000Y-127238000D01*
X195816000Y-125518000D01*
X197176000Y-125518000D01*
G36*
X199286000Y-125518000D02*
G01*
X199286000Y-127238000D01*
X197926000Y-127238000D01*
X197926000Y-125518000D01*
X199286000Y-125518000D01*
G37*
X199286000Y-125518000D02*
X199286000Y-127238000D01*
X197926000Y-127238000D01*
X197926000Y-125518000D01*
X199286000Y-125518000D01*
G36*
X195066000Y-122698000D02*
G01*
X195066000Y-124418000D01*
X193706000Y-124418000D01*
X193706000Y-122698000D01*
X195066000Y-122698000D01*
G37*
X195066000Y-122698000D02*
X195066000Y-124418000D01*
X193706000Y-124418000D01*
X193706000Y-122698000D01*
X195066000Y-122698000D01*
G36*
X197176000Y-122698000D02*
G01*
X197176000Y-124418000D01*
X195816000Y-124418000D01*
X195816000Y-122698000D01*
X197176000Y-122698000D01*
G37*
X197176000Y-122698000D02*
X197176000Y-124418000D01*
X195816000Y-124418000D01*
X195816000Y-122698000D01*
X197176000Y-122698000D01*
G36*
X199286000Y-122698000D02*
G01*
X199286000Y-124418000D01*
X197926000Y-124418000D01*
X197926000Y-122698000D01*
X199286000Y-122698000D01*
G37*
X199286000Y-122698000D02*
X199286000Y-124418000D01*
X197926000Y-124418000D01*
X197926000Y-122698000D01*
X199286000Y-122698000D01*
%TD*%
D11*
%TO.C,Q2*%
X189966000Y-127254000D03*
X189966000Y-122682000D03*
%TD*%
D12*
%TO.C,D1*%
X198628000Y-134713000D03*
D13*
X198628000Y-131493000D03*
%TD*%
D14*
%TO.C,Q1*%
X190976000Y-132014000D03*
X188976000Y-132964000D03*
X188976000Y-131064000D03*
%TD*%
%TO.C,R1*%
G36*
G01*
X176372000Y-128761500D02*
X176372000Y-128286500D01*
G75*
G02*
X176609500Y-128049000I237500J0D01*
G01*
X177184500Y-128049000D01*
G75*
G02*
X177422000Y-128286500I0J-237500D01*
G01*
X177422000Y-128761500D01*
G75*
G02*
X177184500Y-128999000I-237500J0D01*
G01*
X176609500Y-128999000D01*
G75*
G02*
X176372000Y-128761500I0J237500D01*
G01*
G37*
G36*
G01*
X174622000Y-128761500D02*
X174622000Y-128286500D01*
G75*
G02*
X174859500Y-128049000I237500J0D01*
G01*
X175434500Y-128049000D01*
G75*
G02*
X175672000Y-128286500I0J-237500D01*
G01*
X175672000Y-128761500D01*
G75*
G02*
X175434500Y-128999000I-237500J0D01*
G01*
X174859500Y-128999000D01*
G75*
G02*
X174622000Y-128761500I0J237500D01*
G01*
G37*
%TD*%
%TO.C,R2*%
G36*
G01*
X177422000Y-132350500D02*
X177422000Y-132825500D01*
G75*
G02*
X177184500Y-133063000I-237500J0D01*
G01*
X176609500Y-133063000D01*
G75*
G02*
X176372000Y-132825500I0J237500D01*
G01*
X176372000Y-132350500D01*
G75*
G02*
X176609500Y-132113000I237500J0D01*
G01*
X177184500Y-132113000D01*
G75*
G02*
X177422000Y-132350500I0J-237500D01*
G01*
G37*
G36*
G01*
X175672000Y-132350500D02*
X175672000Y-132825500D01*
G75*
G02*
X175434500Y-133063000I-237500J0D01*
G01*
X174859500Y-133063000D01*
G75*
G02*
X174622000Y-132825500I0J237500D01*
G01*
X174622000Y-132350500D01*
G75*
G02*
X174859500Y-132113000I237500J0D01*
G01*
X175434500Y-132113000D01*
G75*
G02*
X175672000Y-132350500I0J-237500D01*
G01*
G37*
%TD*%
%TO.C,R3*%
G36*
G01*
X182835000Y-128507500D02*
X182835000Y-128032500D01*
G75*
G02*
X183072500Y-127795000I237500J0D01*
G01*
X183647500Y-127795000D01*
G75*
G02*
X183885000Y-128032500I0J-237500D01*
G01*
X183885000Y-128507500D01*
G75*
G02*
X183647500Y-128745000I-237500J0D01*
G01*
X183072500Y-128745000D01*
G75*
G02*
X182835000Y-128507500I0J237500D01*
G01*
G37*
G36*
G01*
X181085000Y-128507500D02*
X181085000Y-128032500D01*
G75*
G02*
X181322500Y-127795000I237500J0D01*
G01*
X181897500Y-127795000D01*
G75*
G02*
X182135000Y-128032500I0J-237500D01*
G01*
X182135000Y-128507500D01*
G75*
G02*
X181897500Y-128745000I-237500J0D01*
G01*
X181322500Y-128745000D01*
G75*
G02*
X181085000Y-128507500I0J237500D01*
G01*
G37*
%TD*%
%TO.C,R4*%
G36*
G01*
X182037000Y-132286500D02*
X182037000Y-132761500D01*
G75*
G02*
X181799500Y-132999000I-237500J0D01*
G01*
X181224500Y-132999000D01*
G75*
G02*
X180987000Y-132761500I0J237500D01*
G01*
X180987000Y-132286500D01*
G75*
G02*
X181224500Y-132049000I237500J0D01*
G01*
X181799500Y-132049000D01*
G75*
G02*
X182037000Y-132286500I0J-237500D01*
G01*
G37*
G36*
G01*
X183787000Y-132286500D02*
X183787000Y-132761500D01*
G75*
G02*
X183549500Y-132999000I-237500J0D01*
G01*
X182974500Y-132999000D01*
G75*
G02*
X182737000Y-132761500I0J237500D01*
G01*
X182737000Y-132286500D01*
G75*
G02*
X182974500Y-132049000I237500J0D01*
G01*
X183549500Y-132049000D01*
G75*
G02*
X183787000Y-132286500I0J-237500D01*
G01*
G37*
%TD*%
M02*
