M48
; DRILL file {KiCad (5.1.6)-1} date 01/28/21 02:18:32
; FORMAT={-:-/ absolute / inch / decimal}
; #@! TF.CreationDate,2021-01-28T02:18:32-06:00
; #@! TF.GenerationSoftware,Kicad,Pcbnew,(5.1.6)-1
; #@! TF.FileFunction,Plated,1,2,PTH
FMAT,2
INCH
T1C0.0157
T2C0.0300
T3C0.0394
T4C0.0598
%
G90
G05
T1
X6.88Y-4.95
X7.09Y-4.99
X7.295Y-5.195
X7.325Y-5.225
X7.37Y-5.24
X7.479Y-5.049
X7.48Y-4.95
X7.57Y-5.34
X7.61Y-5.34
X7.65Y-5.34
X7.69Y-5.34
T2
X6.9094Y-2.1972
X6.9094Y-2.2972
X6.9094Y-2.3972
X6.9094Y-2.4972
X6.9094Y-2.5972
X6.9094Y-2.6972
X6.9094Y-2.7972
X6.9094Y-2.8972
X6.9094Y-2.9972
X6.9094Y-3.0972
X6.9094Y-3.1972
X6.9094Y-3.2972
X6.9094Y-3.3972
X6.9094Y-3.4972
X6.9094Y-3.5972
X7.9094Y-2.1972
X7.9094Y-2.2972
X7.9094Y-2.3972
X7.9094Y-2.4972
X7.9094Y-2.5972
X7.9094Y-2.6972
X7.9094Y-2.7972
X7.9094Y-2.8972
X7.9094Y-2.9972
X7.9094Y-3.0972
X7.9094Y-3.1972
X7.9094Y-3.2972
X7.9094Y-3.3972
X7.9094Y-3.4972
X7.9094Y-3.5972
X6.91Y-4.17
X6.91Y-4.53
X7.51Y-4.17
X7.51Y-4.53
T3
X8.37Y-5.12
X8.37Y-5.22
X8.17Y-2.2
X8.17Y-2.3
X8.17Y-2.4
X8.17Y-2.5
X8.17Y-2.6
X8.17Y-2.7
X8.17Y-2.8
X8.17Y-2.9
X8.17Y-3.0
X8.17Y-3.1
X8.17Y-3.2
X8.17Y-3.3
X8.17Y-3.4
X8.17Y-3.5
X8.17Y-3.6
X8.17Y-3.7
X8.17Y-3.8
X8.17Y-3.9
X8.17Y-4.0
X8.17Y-4.1
X6.66Y-2.2
X6.66Y-2.3
X6.66Y-2.4
X6.66Y-2.5
X6.66Y-2.6
X6.66Y-2.7
X6.66Y-2.8
X6.66Y-2.9
X6.66Y-3.0
X6.66Y-3.1
X6.66Y-3.2
X6.66Y-3.3
X6.66Y-3.4
X6.66Y-3.5
X6.66Y-3.6
X6.66Y-3.7
X6.66Y-3.8
X6.66Y-3.9
X6.66Y-4.0
X6.66Y-4.1
X6.62Y-5.08
X6.62Y-5.18
X7.92Y-4.22
X7.92Y-4.32
T4
X8.14Y-5.08
X8.14Y-5.28
X8.14Y-4.52
X8.14Y-4.72
X6.62Y-4.62
X6.62Y-4.82
X7.08Y-5.58
X7.28Y-5.58
X7.48Y-5.58
X7.68Y-5.58
T0
M30
