%TF.GenerationSoftware,KiCad,Pcbnew,(5.1.6)-1*%
%TF.CreationDate,2021-01-28T02:18:39-06:00*%
%TF.ProjectId,tool_checkout_cabinet_modules,746f6f6c-5f63-4686-9563-6b6f75745f63,rev?*%
%TF.SameCoordinates,Original*%
%TF.FileFunction,Legend,Top*%
%TF.FilePolarity,Positive*%
%FSLAX46Y46*%
G04 Gerber Fmt 4.6, Leading zero omitted, Abs format (unit mm)*
G04 Created by KiCad (PCBNEW (5.1.6)-1) date 2021-01-28 02:18:39*
%MOMM*%
%LPD*%
G01*
G04 APERTURE LIST*
%ADD10C,0.250000*%
%ADD11C,0.125000*%
%ADD12C,0.150000*%
%ADD13C,0.120000*%
%ADD14C,0.127000*%
%ADD15C,0.200000*%
%ADD16C,1.000000*%
%ADD17C,0.800000*%
%ADD18C,0.100000*%
%ADD19C,0.015000*%
%ADD20C,0.254000*%
G04 APERTURE END LIST*
D10*
X163393428Y-127524761D02*
X163393428Y-127858095D01*
X162869619Y-128000952D02*
X162869619Y-127524761D01*
X163869619Y-127524761D01*
X163869619Y-128000952D01*
X163536285Y-128334285D02*
X162869619Y-128572380D01*
X163536285Y-128810476D01*
X162869619Y-129620000D02*
X163393428Y-129620000D01*
X163488666Y-129572380D01*
X163536285Y-129477142D01*
X163536285Y-129286666D01*
X163488666Y-129191428D01*
X162917238Y-129620000D02*
X162869619Y-129524761D01*
X162869619Y-129286666D01*
X162917238Y-129191428D01*
X163012476Y-129143809D01*
X163107714Y-129143809D01*
X163202952Y-129191428D01*
X163250571Y-129286666D01*
X163250571Y-129524761D01*
X163298190Y-129620000D01*
X163536285Y-130096190D02*
X162869619Y-130096190D01*
X163441047Y-130096190D02*
X163488666Y-130143809D01*
X163536285Y-130239047D01*
X163536285Y-130381904D01*
X163488666Y-130477142D01*
X163393428Y-130524761D01*
X162869619Y-130524761D01*
X163345809Y-131620000D02*
X163393428Y-131572380D01*
X163441047Y-131477142D01*
X163441047Y-131381904D01*
X163393428Y-131286666D01*
X163345809Y-131239047D01*
X163250571Y-131191428D01*
X163155333Y-131191428D01*
X163060095Y-131239047D01*
X163012476Y-131286666D01*
X162964857Y-131381904D01*
X162964857Y-131477142D01*
X163012476Y-131572380D01*
X163060095Y-131620000D01*
X163441047Y-131620000D02*
X163060095Y-131620000D01*
X163012476Y-131667619D01*
X163012476Y-131715238D01*
X163060095Y-131810476D01*
X163155333Y-131858095D01*
X163393428Y-131858095D01*
X163536285Y-131762857D01*
X163631523Y-131620000D01*
X163679142Y-131429523D01*
X163631523Y-131239047D01*
X163536285Y-131096190D01*
X163393428Y-131000952D01*
X163202952Y-130953333D01*
X163012476Y-131000952D01*
X162869619Y-131096190D01*
X162774380Y-131239047D01*
X162726761Y-131429523D01*
X162774380Y-131620000D01*
X162869619Y-131762857D01*
X163393428Y-132286666D02*
X163393428Y-132620000D01*
X162869619Y-132762857D02*
X162869619Y-132286666D01*
X163869619Y-132286666D01*
X163869619Y-132762857D01*
X163536285Y-133096190D02*
X162869619Y-133334285D01*
X163536285Y-133572380D01*
X162869619Y-134381904D02*
X163393428Y-134381904D01*
X163488666Y-134334285D01*
X163536285Y-134239047D01*
X163536285Y-134048571D01*
X163488666Y-133953333D01*
X162917238Y-134381904D02*
X162869619Y-134286666D01*
X162869619Y-134048571D01*
X162917238Y-133953333D01*
X163012476Y-133905714D01*
X163107714Y-133905714D01*
X163202952Y-133953333D01*
X163250571Y-134048571D01*
X163250571Y-134286666D01*
X163298190Y-134381904D01*
X163536285Y-134858095D02*
X162869619Y-134858095D01*
X163441047Y-134858095D02*
X163488666Y-134905714D01*
X163536285Y-135000952D01*
X163536285Y-135143809D01*
X163488666Y-135239047D01*
X163393428Y-135286666D01*
X162869619Y-135286666D01*
X162869619Y-136239047D02*
X162869619Y-135762857D01*
X163869619Y-135762857D01*
X162869619Y-136715238D02*
X162917238Y-136620000D01*
X162964857Y-136572380D01*
X163060095Y-136524761D01*
X163345809Y-136524761D01*
X163441047Y-136572380D01*
X163488666Y-136620000D01*
X163536285Y-136715238D01*
X163536285Y-136858095D01*
X163488666Y-136953333D01*
X163441047Y-137000952D01*
X163345809Y-137048571D01*
X163060095Y-137048571D01*
X162964857Y-137000952D01*
X162917238Y-136953333D01*
X162869619Y-136858095D01*
X162869619Y-136715238D01*
X163536285Y-137334285D02*
X163536285Y-137715238D01*
X163869619Y-137477142D02*
X163012476Y-137477142D01*
X162917238Y-137524761D01*
X162869619Y-137620000D01*
X162869619Y-137715238D01*
X163536285Y-137905714D02*
X163536285Y-138286666D01*
X163869619Y-138048571D02*
X163012476Y-138048571D01*
X162917238Y-138096190D01*
X162869619Y-138191428D01*
X162869619Y-138286666D01*
X162964857Y-138620000D02*
X162917238Y-138667619D01*
X162869619Y-138620000D01*
X162917238Y-138572380D01*
X162964857Y-138620000D01*
X162869619Y-138620000D01*
X162917238Y-139524761D02*
X162869619Y-139429523D01*
X162869619Y-139239047D01*
X162917238Y-139143809D01*
X162964857Y-139096190D01*
X163060095Y-139048571D01*
X163345809Y-139048571D01*
X163441047Y-139096190D01*
X163488666Y-139143809D01*
X163536285Y-139239047D01*
X163536285Y-139429523D01*
X163488666Y-139524761D01*
X162869619Y-140096190D02*
X162917238Y-140000952D01*
X162964857Y-139953333D01*
X163060095Y-139905714D01*
X163345809Y-139905714D01*
X163441047Y-139953333D01*
X163488666Y-140000952D01*
X163536285Y-140096190D01*
X163536285Y-140239047D01*
X163488666Y-140334285D01*
X163441047Y-140381904D01*
X163345809Y-140429523D01*
X163060095Y-140429523D01*
X162964857Y-140381904D01*
X162917238Y-140334285D01*
X162869619Y-140239047D01*
X162869619Y-140096190D01*
X162869619Y-140858095D02*
X163536285Y-140858095D01*
X163441047Y-140858095D02*
X163488666Y-140905714D01*
X163536285Y-141000952D01*
X163536285Y-141143809D01*
X163488666Y-141239047D01*
X163393428Y-141286666D01*
X162869619Y-141286666D01*
X163393428Y-141286666D02*
X163488666Y-141334285D01*
X163536285Y-141429523D01*
X163536285Y-141572380D01*
X163488666Y-141667619D01*
X163393428Y-141715238D01*
X162869619Y-141715238D01*
D11*
X164190119Y-57952285D02*
X164666309Y-57618952D01*
X164190119Y-57380857D02*
X165190119Y-57380857D01*
X165190119Y-57761809D01*
X165142500Y-57857047D01*
X165094880Y-57904666D01*
X164999642Y-57952285D01*
X164856785Y-57952285D01*
X164761547Y-57904666D01*
X164713928Y-57857047D01*
X164666309Y-57761809D01*
X164666309Y-57380857D01*
X164713928Y-58714190D02*
X164713928Y-58380857D01*
X164190119Y-58380857D02*
X165190119Y-58380857D01*
X165190119Y-58857047D01*
X164190119Y-59238000D02*
X165190119Y-59238000D01*
X164190119Y-59714190D02*
X165190119Y-59714190D01*
X165190119Y-59952285D01*
X165142500Y-60095142D01*
X165047261Y-60190380D01*
X164952023Y-60238000D01*
X164761547Y-60285619D01*
X164618690Y-60285619D01*
X164428214Y-60238000D01*
X164332976Y-60190380D01*
X164237738Y-60095142D01*
X164190119Y-59952285D01*
X164190119Y-59714190D01*
X165190119Y-61380857D02*
X164190119Y-61618952D01*
X164904404Y-61809428D01*
X164190119Y-61999904D01*
X165190119Y-62238000D01*
X164190119Y-62618952D02*
X165190119Y-62618952D01*
X164713928Y-63428476D02*
X164713928Y-63095142D01*
X164190119Y-63095142D02*
X165190119Y-63095142D01*
X165190119Y-63571333D01*
X164190119Y-63952285D02*
X165190119Y-63952285D01*
X164190119Y-65666571D02*
X164190119Y-65190380D01*
X165190119Y-65190380D01*
X164190119Y-66142761D02*
X164237738Y-66047523D01*
X164285357Y-65999904D01*
X164380595Y-65952285D01*
X164666309Y-65952285D01*
X164761547Y-65999904D01*
X164809166Y-66047523D01*
X164856785Y-66142761D01*
X164856785Y-66285619D01*
X164809166Y-66380857D01*
X164761547Y-66428476D01*
X164666309Y-66476095D01*
X164380595Y-66476095D01*
X164285357Y-66428476D01*
X164237738Y-66380857D01*
X164190119Y-66285619D01*
X164190119Y-66142761D01*
X164237738Y-67333238D02*
X164190119Y-67238000D01*
X164190119Y-67047523D01*
X164237738Y-66952285D01*
X164285357Y-66904666D01*
X164380595Y-66857047D01*
X164666309Y-66857047D01*
X164761547Y-66904666D01*
X164809166Y-66952285D01*
X164856785Y-67047523D01*
X164856785Y-67238000D01*
X164809166Y-67333238D01*
X164190119Y-67761809D02*
X165190119Y-67761809D01*
X164571071Y-67857047D02*
X164190119Y-68142761D01*
X164856785Y-68142761D02*
X164475833Y-67761809D01*
X163565119Y-57738000D02*
X162565119Y-58071333D01*
X163565119Y-58404666D01*
X162565119Y-59261809D02*
X162565119Y-58690380D01*
X162565119Y-58976095D02*
X163565119Y-58976095D01*
X163422261Y-58880857D01*
X163327023Y-58785619D01*
X163279404Y-58690380D01*
X163565119Y-60738000D02*
X162850833Y-60738000D01*
X162707976Y-60690380D01*
X162612738Y-60595142D01*
X162565119Y-60452285D01*
X162565119Y-60357047D01*
X162565119Y-61642761D02*
X163088928Y-61642761D01*
X163184166Y-61595142D01*
X163231785Y-61499904D01*
X163231785Y-61309428D01*
X163184166Y-61214190D01*
X162612738Y-61642761D02*
X162565119Y-61547523D01*
X162565119Y-61309428D01*
X162612738Y-61214190D01*
X162707976Y-61166571D01*
X162803214Y-61166571D01*
X162898452Y-61214190D01*
X162946071Y-61309428D01*
X162946071Y-61547523D01*
X162993690Y-61642761D01*
X163231785Y-62118952D02*
X162565119Y-62118952D01*
X163136547Y-62118952D02*
X163184166Y-62166571D01*
X163231785Y-62261809D01*
X163231785Y-62404666D01*
X163184166Y-62499904D01*
X163088928Y-62547523D01*
X162565119Y-62547523D01*
X162660357Y-63023714D02*
X162612738Y-63071333D01*
X162565119Y-63023714D01*
X162612738Y-62976095D01*
X162660357Y-63023714D01*
X162565119Y-63023714D01*
X163469880Y-64214190D02*
X163517500Y-64261809D01*
X163565119Y-64357047D01*
X163565119Y-64595142D01*
X163517500Y-64690380D01*
X163469880Y-64738000D01*
X163374642Y-64785619D01*
X163279404Y-64785619D01*
X163136547Y-64738000D01*
X162565119Y-64166571D01*
X162565119Y-64785619D01*
X163565119Y-65404666D02*
X163565119Y-65499904D01*
X163517500Y-65595142D01*
X163469880Y-65642761D01*
X163374642Y-65690380D01*
X163184166Y-65738000D01*
X162946071Y-65738000D01*
X162755595Y-65690380D01*
X162660357Y-65642761D01*
X162612738Y-65595142D01*
X162565119Y-65499904D01*
X162565119Y-65404666D01*
X162612738Y-65309428D01*
X162660357Y-65261809D01*
X162755595Y-65214190D01*
X162946071Y-65166571D01*
X163184166Y-65166571D01*
X163374642Y-65214190D01*
X163469880Y-65261809D01*
X163517500Y-65309428D01*
X163565119Y-65404666D01*
X163469880Y-66118952D02*
X163517500Y-66166571D01*
X163565119Y-66261809D01*
X163565119Y-66499904D01*
X163517500Y-66595142D01*
X163469880Y-66642761D01*
X163374642Y-66690380D01*
X163279404Y-66690380D01*
X163136547Y-66642761D01*
X162565119Y-66071333D01*
X162565119Y-66690380D01*
X162565119Y-67642761D02*
X162565119Y-67071333D01*
X162565119Y-67357047D02*
X163565119Y-67357047D01*
X163422261Y-67261809D01*
X163327023Y-67166571D01*
X163279404Y-67071333D01*
D12*
X197104095Y-105926000D02*
X197008857Y-105878380D01*
X196866000Y-105878380D01*
X196723142Y-105926000D01*
X196627904Y-106021238D01*
X196580285Y-106116476D01*
X196532666Y-106306952D01*
X196532666Y-106449809D01*
X196580285Y-106640285D01*
X196627904Y-106735523D01*
X196723142Y-106830761D01*
X196866000Y-106878380D01*
X196961238Y-106878380D01*
X197104095Y-106830761D01*
X197151714Y-106783142D01*
X197151714Y-106449809D01*
X196961238Y-106449809D01*
X197580285Y-106878380D02*
X197580285Y-105878380D01*
X198151714Y-106878380D01*
X198151714Y-105878380D01*
X198627904Y-106878380D02*
X198627904Y-105878380D01*
X198866000Y-105878380D01*
X199008857Y-105926000D01*
X199104095Y-106021238D01*
X199151714Y-106116476D01*
X199199333Y-106306952D01*
X199199333Y-106449809D01*
X199151714Y-106640285D01*
X199104095Y-106735523D01*
X199008857Y-106830761D01*
X198866000Y-106878380D01*
X198627904Y-106878380D01*
X204414380Y-110053047D02*
X204414380Y-110624476D01*
X204414380Y-110338761D02*
X203414380Y-110338761D01*
X203557238Y-110434000D01*
X203652476Y-110529238D01*
X203700095Y-110624476D01*
X203509619Y-109672095D02*
X203462000Y-109624476D01*
X203414380Y-109529238D01*
X203414380Y-109291142D01*
X203462000Y-109195904D01*
X203509619Y-109148285D01*
X203604857Y-109100666D01*
X203700095Y-109100666D01*
X203842952Y-109148285D01*
X204414380Y-109719714D01*
X204414380Y-109100666D01*
X203747714Y-108767333D02*
X204414380Y-108529238D01*
X203747714Y-108291142D01*
X204414380Y-107148285D02*
X203414380Y-107148285D01*
X204414380Y-106672095D02*
X203414380Y-106672095D01*
X204414380Y-106100666D01*
X203414380Y-106100666D01*
X204414380Y-105624476D02*
X203414380Y-105624476D01*
X203414380Y-105243523D01*
X203462000Y-105148285D01*
X203509619Y-105100666D01*
X203604857Y-105053047D01*
X203747714Y-105053047D01*
X203842952Y-105100666D01*
X203890571Y-105148285D01*
X203938190Y-105243523D01*
X203938190Y-105624476D01*
X203414380Y-104624476D02*
X204223904Y-104624476D01*
X204319142Y-104576857D01*
X204366761Y-104529238D01*
X204414380Y-104434000D01*
X204414380Y-104243523D01*
X204366761Y-104148285D01*
X204319142Y-104100666D01*
X204223904Y-104053047D01*
X203414380Y-104053047D01*
X203414380Y-103719714D02*
X203414380Y-103148285D01*
X204414380Y-103434000D02*
X203414380Y-103434000D01*
X208026095Y-137930000D02*
X207930857Y-137882380D01*
X207788000Y-137882380D01*
X207645142Y-137930000D01*
X207549904Y-138025238D01*
X207502285Y-138120476D01*
X207454666Y-138310952D01*
X207454666Y-138453809D01*
X207502285Y-138644285D01*
X207549904Y-138739523D01*
X207645142Y-138834761D01*
X207788000Y-138882380D01*
X207883238Y-138882380D01*
X208026095Y-138834761D01*
X208073714Y-138787142D01*
X208073714Y-138453809D01*
X207883238Y-138453809D01*
X208502285Y-138882380D02*
X208502285Y-137882380D01*
X209073714Y-138882380D01*
X209073714Y-137882380D01*
X209549904Y-138882380D02*
X209549904Y-137882380D01*
X209788000Y-137882380D01*
X209930857Y-137930000D01*
X210026095Y-138025238D01*
X210073714Y-138120476D01*
X210121333Y-138310952D01*
X210121333Y-138453809D01*
X210073714Y-138644285D01*
X210026095Y-138739523D01*
X209930857Y-138834761D01*
X209788000Y-138882380D01*
X209549904Y-138882380D01*
X212796380Y-138120285D02*
X212796380Y-138596476D01*
X211796380Y-138596476D01*
X211796380Y-137596476D02*
X211796380Y-137406000D01*
X211844000Y-137310761D01*
X211939238Y-137215523D01*
X212129714Y-137167904D01*
X212463047Y-137167904D01*
X212653523Y-137215523D01*
X212748761Y-137310761D01*
X212796380Y-137406000D01*
X212796380Y-137596476D01*
X212748761Y-137691714D01*
X212653523Y-137786952D01*
X212463047Y-137834571D01*
X212129714Y-137834571D01*
X211939238Y-137786952D01*
X211844000Y-137691714D01*
X211796380Y-137596476D01*
X212701142Y-136167904D02*
X212748761Y-136215523D01*
X212796380Y-136358380D01*
X212796380Y-136453619D01*
X212748761Y-136596476D01*
X212653523Y-136691714D01*
X212558285Y-136739333D01*
X212367809Y-136786952D01*
X212224952Y-136786952D01*
X212034476Y-136739333D01*
X211939238Y-136691714D01*
X211844000Y-136596476D01*
X211796380Y-136453619D01*
X211796380Y-136358380D01*
X211844000Y-136215523D01*
X211891619Y-136167904D01*
X212796380Y-135739333D02*
X211796380Y-135739333D01*
X212796380Y-135167904D02*
X212224952Y-135596476D01*
X211796380Y-135167904D02*
X212367809Y-135739333D01*
X214320380Y-120213047D02*
X214320380Y-120784476D01*
X214320380Y-120498761D02*
X213320380Y-120498761D01*
X213463238Y-120594000D01*
X213558476Y-120689238D01*
X213606095Y-120784476D01*
X213415619Y-119832095D02*
X213368000Y-119784476D01*
X213320380Y-119689238D01*
X213320380Y-119451142D01*
X213368000Y-119355904D01*
X213415619Y-119308285D01*
X213510857Y-119260666D01*
X213606095Y-119260666D01*
X213748952Y-119308285D01*
X214320380Y-119879714D01*
X214320380Y-119260666D01*
X213653714Y-118927333D02*
X214320380Y-118689238D01*
X213653714Y-118451142D01*
X214320380Y-117308285D02*
X213320380Y-117308285D01*
X214320380Y-116832095D02*
X213320380Y-116832095D01*
X214320380Y-116260666D01*
X213320380Y-116260666D01*
X214320380Y-115784476D02*
X213320380Y-115784476D01*
X213320380Y-115403523D01*
X213368000Y-115308285D01*
X213415619Y-115260666D01*
X213510857Y-115213047D01*
X213653714Y-115213047D01*
X213748952Y-115260666D01*
X213796571Y-115308285D01*
X213844190Y-115403523D01*
X213844190Y-115784476D01*
X213320380Y-114784476D02*
X214129904Y-114784476D01*
X214225142Y-114736857D01*
X214272761Y-114689238D01*
X214320380Y-114594000D01*
X214320380Y-114403523D01*
X214272761Y-114308285D01*
X214225142Y-114260666D01*
X214129904Y-114213047D01*
X213320380Y-114213047D01*
X213320380Y-113879714D02*
X213320380Y-113308285D01*
X214320380Y-113594000D02*
X213320380Y-113594000D01*
X161599619Y-115007047D02*
X162599619Y-115007047D01*
X162599619Y-115245142D01*
X162552000Y-115388000D01*
X162456761Y-115483238D01*
X162361523Y-115530857D01*
X162171047Y-115578476D01*
X162028190Y-115578476D01*
X161837714Y-115530857D01*
X161742476Y-115483238D01*
X161647238Y-115388000D01*
X161599619Y-115245142D01*
X161599619Y-115007047D01*
X162599619Y-116197523D02*
X162599619Y-116388000D01*
X162552000Y-116483238D01*
X162456761Y-116578476D01*
X162266285Y-116626095D01*
X161932952Y-116626095D01*
X161742476Y-116578476D01*
X161647238Y-116483238D01*
X161599619Y-116388000D01*
X161599619Y-116197523D01*
X161647238Y-116102285D01*
X161742476Y-116007047D01*
X161932952Y-115959428D01*
X162266285Y-115959428D01*
X162456761Y-116007047D01*
X162552000Y-116102285D01*
X162599619Y-116197523D01*
X162599619Y-117245142D02*
X162599619Y-117435619D01*
X162552000Y-117530857D01*
X162456761Y-117626095D01*
X162266285Y-117673714D01*
X161932952Y-117673714D01*
X161742476Y-117626095D01*
X161647238Y-117530857D01*
X161599619Y-117435619D01*
X161599619Y-117245142D01*
X161647238Y-117149904D01*
X161742476Y-117054666D01*
X161932952Y-117007047D01*
X162266285Y-117007047D01*
X162456761Y-117054666D01*
X162552000Y-117149904D01*
X162599619Y-117245142D01*
X161599619Y-118673714D02*
X162075809Y-118340380D01*
X161599619Y-118102285D02*
X162599619Y-118102285D01*
X162599619Y-118483238D01*
X162552000Y-118578476D01*
X162504380Y-118626095D01*
X162409142Y-118673714D01*
X162266285Y-118673714D01*
X162171047Y-118626095D01*
X162123428Y-118578476D01*
X162075809Y-118483238D01*
X162075809Y-118102285D01*
X161647238Y-119816571D02*
X161599619Y-119959428D01*
X161599619Y-120197523D01*
X161647238Y-120292761D01*
X161694857Y-120340380D01*
X161790095Y-120388000D01*
X161885333Y-120388000D01*
X161980571Y-120340380D01*
X162028190Y-120292761D01*
X162075809Y-120197523D01*
X162123428Y-120007047D01*
X162171047Y-119911809D01*
X162218666Y-119864190D01*
X162313904Y-119816571D01*
X162409142Y-119816571D01*
X162504380Y-119864190D01*
X162552000Y-119911809D01*
X162599619Y-120007047D01*
X162599619Y-120245142D01*
X162552000Y-120388000D01*
X162599619Y-120721333D02*
X161599619Y-120959428D01*
X162313904Y-121149904D01*
X161599619Y-121340380D01*
X162599619Y-121578476D01*
X161599619Y-121959428D02*
X162599619Y-121959428D01*
X162599619Y-122292761D02*
X162599619Y-122864190D01*
X161599619Y-122578476D02*
X162599619Y-122578476D01*
X161694857Y-123768952D02*
X161647238Y-123721333D01*
X161599619Y-123578476D01*
X161599619Y-123483238D01*
X161647238Y-123340380D01*
X161742476Y-123245142D01*
X161837714Y-123197523D01*
X162028190Y-123149904D01*
X162171047Y-123149904D01*
X162361523Y-123197523D01*
X162456761Y-123245142D01*
X162552000Y-123340380D01*
X162599619Y-123483238D01*
X162599619Y-123578476D01*
X162552000Y-123721333D01*
X162504380Y-123768952D01*
X161599619Y-124197523D02*
X162599619Y-124197523D01*
X162123428Y-124197523D02*
X162123428Y-124768952D01*
X161599619Y-124768952D02*
X162599619Y-124768952D01*
X175204380Y-145803428D02*
X174728190Y-146136761D01*
X175204380Y-146374857D02*
X174204380Y-146374857D01*
X174204380Y-145993904D01*
X174252000Y-145898666D01*
X174299619Y-145851047D01*
X174394857Y-145803428D01*
X174537714Y-145803428D01*
X174632952Y-145851047D01*
X174680571Y-145898666D01*
X174728190Y-145993904D01*
X174728190Y-146374857D01*
X174680571Y-145041523D02*
X174680571Y-145374857D01*
X175204380Y-145374857D02*
X174204380Y-145374857D01*
X174204380Y-144898666D01*
X175204380Y-144517714D02*
X174204380Y-144517714D01*
X175204380Y-144041523D02*
X174204380Y-144041523D01*
X174204380Y-143803428D01*
X174252000Y-143660571D01*
X174347238Y-143565333D01*
X174442476Y-143517714D01*
X174632952Y-143470095D01*
X174775809Y-143470095D01*
X174966285Y-143517714D01*
X175061523Y-143565333D01*
X175156761Y-143660571D01*
X175204380Y-143803428D01*
X175204380Y-144041523D01*
X175204380Y-141708190D02*
X174728190Y-142041523D01*
X175204380Y-142279619D02*
X174204380Y-142279619D01*
X174204380Y-141898666D01*
X174252000Y-141803428D01*
X174299619Y-141755809D01*
X174394857Y-141708190D01*
X174537714Y-141708190D01*
X174632952Y-141755809D01*
X174680571Y-141803428D01*
X174728190Y-141898666D01*
X174728190Y-142279619D01*
X174680571Y-141279619D02*
X174680571Y-140946285D01*
X175204380Y-140803428D02*
X175204380Y-141279619D01*
X174204380Y-141279619D01*
X174204380Y-140803428D01*
X174918666Y-140422476D02*
X174918666Y-139946285D01*
X175204380Y-140517714D02*
X174204380Y-140184380D01*
X175204380Y-139851047D01*
X175204380Y-139517714D02*
X174204380Y-139517714D01*
X174204380Y-139279619D01*
X174252000Y-139136761D01*
X174347238Y-139041523D01*
X174442476Y-138993904D01*
X174632952Y-138946285D01*
X174775809Y-138946285D01*
X174966285Y-138993904D01*
X175061523Y-139041523D01*
X175156761Y-139136761D01*
X175204380Y-139279619D01*
X175204380Y-139517714D01*
X174680571Y-138517714D02*
X174680571Y-138184380D01*
X175204380Y-138041523D02*
X175204380Y-138517714D01*
X174204380Y-138517714D01*
X174204380Y-138041523D01*
X175204380Y-137041523D02*
X174728190Y-137374857D01*
X175204380Y-137612952D02*
X174204380Y-137612952D01*
X174204380Y-137232000D01*
X174252000Y-137136761D01*
X174299619Y-137089142D01*
X174394857Y-137041523D01*
X174537714Y-137041523D01*
X174632952Y-137089142D01*
X174680571Y-137136761D01*
X174728190Y-137232000D01*
X174728190Y-137612952D01*
X177569904Y-136596380D02*
X177569904Y-135596380D01*
X177808000Y-135596380D01*
X177950857Y-135644000D01*
X178046095Y-135739238D01*
X178093714Y-135834476D01*
X178141333Y-136024952D01*
X178141333Y-136167809D01*
X178093714Y-136358285D01*
X178046095Y-136453523D01*
X177950857Y-136548761D01*
X177808000Y-136596380D01*
X177569904Y-136596380D01*
X179093714Y-136596380D02*
X178522285Y-136596380D01*
X178808000Y-136596380D02*
X178808000Y-135596380D01*
X178712761Y-135739238D01*
X178617523Y-135834476D01*
X178522285Y-135882095D01*
X183157904Y-136850380D02*
X183157904Y-135850380D01*
X183396000Y-135850380D01*
X183538857Y-135898000D01*
X183634095Y-135993238D01*
X183681714Y-136088476D01*
X183729333Y-136278952D01*
X183729333Y-136421809D01*
X183681714Y-136612285D01*
X183634095Y-136707523D01*
X183538857Y-136802761D01*
X183396000Y-136850380D01*
X183157904Y-136850380D01*
X184348380Y-135850380D02*
X184443619Y-135850380D01*
X184538857Y-135898000D01*
X184586476Y-135945619D01*
X184634095Y-136040857D01*
X184681714Y-136231333D01*
X184681714Y-136469428D01*
X184634095Y-136659904D01*
X184586476Y-136755142D01*
X184538857Y-136802761D01*
X184443619Y-136850380D01*
X184348380Y-136850380D01*
X184253142Y-136802761D01*
X184205523Y-136755142D01*
X184157904Y-136659904D01*
X184110285Y-136469428D01*
X184110285Y-136231333D01*
X184157904Y-136040857D01*
X184205523Y-135945619D01*
X184253142Y-135898000D01*
X184348380Y-135850380D01*
X194246571Y-137104380D02*
X193675142Y-137104380D01*
X193960857Y-137104380D02*
X193960857Y-136104380D01*
X193865619Y-136247238D01*
X193770380Y-136342476D01*
X193675142Y-136390095D01*
X194627523Y-136199619D02*
X194675142Y-136152000D01*
X194770380Y-136104380D01*
X195008476Y-136104380D01*
X195103714Y-136152000D01*
X195151333Y-136199619D01*
X195198952Y-136294857D01*
X195198952Y-136390095D01*
X195151333Y-136532952D01*
X194579904Y-137104380D01*
X195198952Y-137104380D01*
X195532285Y-136437714D02*
X195770380Y-137104380D01*
X196008476Y-136437714D01*
X188976095Y-136152000D02*
X188880857Y-136104380D01*
X188738000Y-136104380D01*
X188595142Y-136152000D01*
X188499904Y-136247238D01*
X188452285Y-136342476D01*
X188404666Y-136532952D01*
X188404666Y-136675809D01*
X188452285Y-136866285D01*
X188499904Y-136961523D01*
X188595142Y-137056761D01*
X188738000Y-137104380D01*
X188833238Y-137104380D01*
X188976095Y-137056761D01*
X189023714Y-137009142D01*
X189023714Y-136675809D01*
X188833238Y-136675809D01*
X189452285Y-137104380D02*
X189452285Y-136104380D01*
X190023714Y-137104380D01*
X190023714Y-136104380D01*
X190499904Y-137104380D02*
X190499904Y-136104380D01*
X190738000Y-136104380D01*
X190880857Y-136152000D01*
X190976095Y-136247238D01*
X191023714Y-136342476D01*
X191071333Y-136532952D01*
X191071333Y-136675809D01*
X191023714Y-136866285D01*
X190976095Y-136961523D01*
X190880857Y-137056761D01*
X190738000Y-137104380D01*
X190499904Y-137104380D01*
X208280095Y-110244000D02*
X208184857Y-110196380D01*
X208042000Y-110196380D01*
X207899142Y-110244000D01*
X207803904Y-110339238D01*
X207756285Y-110434476D01*
X207708666Y-110624952D01*
X207708666Y-110767809D01*
X207756285Y-110958285D01*
X207803904Y-111053523D01*
X207899142Y-111148761D01*
X208042000Y-111196380D01*
X208137238Y-111196380D01*
X208280095Y-111148761D01*
X208327714Y-111101142D01*
X208327714Y-110767809D01*
X208137238Y-110767809D01*
X208756285Y-111196380D02*
X208756285Y-110196380D01*
X209327714Y-111196380D01*
X209327714Y-110196380D01*
X209803904Y-111196380D02*
X209803904Y-110196380D01*
X210042000Y-110196380D01*
X210184857Y-110244000D01*
X210280095Y-110339238D01*
X210327714Y-110434476D01*
X210375333Y-110624952D01*
X210375333Y-110767809D01*
X210327714Y-110958285D01*
X210280095Y-111053523D01*
X210184857Y-111148761D01*
X210042000Y-111196380D01*
X209803904Y-111196380D01*
D13*
%TO.C,J6-ALT*%
X211268000Y-133918000D02*
X213928000Y-133918000D01*
X211268000Y-131318000D02*
X211268000Y-133918000D01*
X213928000Y-131318000D02*
X213928000Y-133918000D01*
X211268000Y-131318000D02*
X213928000Y-131318000D01*
X211268000Y-130048000D02*
X211268000Y-128718000D01*
X211268000Y-128718000D02*
X212598000Y-128718000D01*
%TO.C,J1-ALT*%
X199838000Y-111058000D02*
X202498000Y-111058000D01*
X199838000Y-108458000D02*
X199838000Y-111058000D01*
X202498000Y-108458000D02*
X202498000Y-111058000D01*
X199838000Y-108458000D02*
X202498000Y-108458000D01*
X199838000Y-107188000D02*
X199838000Y-105858000D01*
X199838000Y-105858000D02*
X201168000Y-105858000D01*
%TO.C,J5-ALT*%
X166818000Y-132902000D02*
X169478000Y-132902000D01*
X166818000Y-130302000D02*
X166818000Y-132902000D01*
X169478000Y-130302000D02*
X169478000Y-132902000D01*
X166818000Y-130302000D02*
X169478000Y-130302000D01*
X166818000Y-129032000D02*
X166818000Y-127702000D01*
X166818000Y-127702000D02*
X168148000Y-127702000D01*
D14*
%TO.C,Q2*%
X192012000Y-128368000D02*
X192012000Y-121568000D01*
X198232000Y-128368000D02*
X192012000Y-128368000D01*
X198232000Y-121568000D02*
X192012000Y-121568000D01*
D15*
X187895000Y-122682000D02*
G75*
G03*
X187895000Y-122682000I-100000J0D01*
G01*
D12*
%TO.C,A1*%
X192024000Y-116332000D02*
X192024000Y-104902000D01*
X192024000Y-104902000D02*
X174244000Y-104902000D01*
X174244000Y-104902000D02*
X174244000Y-116332000D01*
X174244000Y-116332000D02*
X192024000Y-116332000D01*
X188214000Y-109982000D02*
X178054000Y-109982000D01*
X179324000Y-111252000D02*
X178054000Y-109982000D01*
X178054000Y-109982000D02*
X179324000Y-108712000D01*
D16*
%TO.C,U1*%
X196118000Y-98665000D02*
G75*
G03*
X196118000Y-98665000I-300000J0D01*
G01*
X180878000Y-98665000D02*
G75*
G03*
X180878000Y-98665000I-300000J0D01*
G01*
D13*
X181848000Y-96760000D02*
X181848000Y-100570000D01*
X179308000Y-96760000D02*
X181848000Y-96760000D01*
X179308000Y-100570000D02*
X179308000Y-96760000D01*
X181848000Y-100570000D02*
X179308000Y-100570000D01*
X194548000Y-100570000D02*
X194548000Y-96760000D01*
X197088000Y-100570000D02*
X194548000Y-100570000D01*
X197088000Y-96760000D02*
X197088000Y-100570000D01*
X194548000Y-96760000D02*
X197088000Y-96760000D01*
D17*
X183518000Y-72630000D02*
G75*
G03*
X183518000Y-72630000I-400000J0D01*
G01*
D13*
X180698000Y-74770000D02*
X180698000Y-56770000D01*
X195698000Y-74770000D02*
X180698000Y-74770000D01*
X195698000Y-56770000D02*
X195698000Y-74770000D01*
X180698000Y-56770000D02*
X195698000Y-56770000D01*
X193278000Y-51802000D02*
X193278000Y-55358000D01*
X195818000Y-51802000D02*
X195818000Y-55358000D01*
X190738000Y-51802000D02*
X195818000Y-51802000D01*
X190738000Y-53834000D02*
X190738000Y-51802000D01*
X188198000Y-53834000D02*
X190738000Y-53834000D01*
X188198000Y-51802000D02*
X188198000Y-53834000D01*
X185658000Y-51802000D02*
X188198000Y-51802000D01*
X185658000Y-53834000D02*
X185658000Y-51802000D01*
X183118000Y-53834000D02*
X185658000Y-53834000D01*
X183118000Y-51802000D02*
X183118000Y-53834000D01*
X180578000Y-51802000D02*
X183118000Y-51802000D01*
X180578000Y-55358000D02*
X180578000Y-51802000D01*
X179308000Y-56120000D02*
X179308000Y-51040000D01*
X197088000Y-56120000D02*
X179308000Y-56120000D01*
X197088000Y-51040000D02*
X197088000Y-56120000D01*
X179308000Y-51040000D02*
X197088000Y-51040000D01*
X184198000Y-95270000D02*
X192198000Y-95270000D01*
X192198000Y-95270000D02*
X192198000Y-101270000D01*
X184198000Y-95270000D02*
X184198000Y-101270000D01*
X201398000Y-99270000D02*
G75*
G03*
X201398000Y-99270000I-1500000J0D01*
G01*
X177998000Y-99270000D02*
G75*
G03*
X177998000Y-99270000I-1500000J0D01*
G01*
X176198000Y-49770000D02*
X200198000Y-49770000D01*
X176198000Y-101270000D02*
X200198000Y-101270000D01*
X174198000Y-51770000D02*
X174198000Y-99270000D01*
X202198000Y-99270000D02*
X202198000Y-51770000D01*
X201398000Y-51770000D02*
G75*
G03*
X201398000Y-51770000I-1500000J0D01*
G01*
X177998000Y-51770000D02*
G75*
G03*
X177998000Y-51770000I-1500000J0D01*
G01*
X202198000Y-99270000D02*
G75*
G02*
X200198000Y-101270000I-2000000J0D01*
G01*
X176198000Y-101270000D02*
G75*
G02*
X174198000Y-99270000I0J2000000D01*
G01*
X174198000Y-51770000D02*
G75*
G02*
X176198000Y-49770000I2000000J0D01*
G01*
X200198000Y-49770000D02*
G75*
G02*
X202198000Y-51770000I0J-2000000D01*
G01*
D18*
%TO.C,D1*%
X197328000Y-134713000D02*
X197328000Y-133313000D01*
X197628000Y-134713000D02*
X197328000Y-134713000D01*
X199928000Y-134713000D02*
X199628000Y-134713000D01*
X199928000Y-133313000D02*
X199928000Y-134713000D01*
D13*
%TO.C,J1*%
X202946000Y-112268000D02*
X202946000Y-122428000D01*
X210566000Y-112268000D02*
X202946000Y-112268000D01*
X210566000Y-122428000D02*
X210566000Y-112268000D01*
X202946000Y-122428000D02*
X210566000Y-122428000D01*
X204216000Y-122428000D02*
X204216000Y-112268000D01*
%TO.C,J2*%
X197612000Y-137922000D02*
X177292000Y-137922000D01*
X197612000Y-145542000D02*
X177292000Y-145542000D01*
X177292000Y-139192000D02*
X197612000Y-139192000D01*
X177292000Y-137922000D02*
X177292000Y-145542000D01*
X197612000Y-145542000D02*
X197612000Y-137922000D01*
%TO.C,J3*%
X167834000Y-54550000D02*
X169164000Y-54550000D01*
X167834000Y-55880000D02*
X167834000Y-54550000D01*
X167834000Y-57150000D02*
X170494000Y-57150000D01*
X170494000Y-57150000D02*
X170494000Y-105470000D01*
X167834000Y-57150000D02*
X167834000Y-105470000D01*
X167834000Y-105470000D02*
X170494000Y-105470000D01*
%TO.C,J4*%
X208848000Y-105470000D02*
X207518000Y-105470000D01*
X208848000Y-104140000D02*
X208848000Y-105470000D01*
X208848000Y-102870000D02*
X206188000Y-102870000D01*
X206188000Y-102870000D02*
X206188000Y-54550000D01*
X208848000Y-102870000D02*
X208848000Y-54550000D01*
X208848000Y-54550000D02*
X206188000Y-54550000D01*
%TO.C,J5*%
X171958000Y-124968000D02*
X171958000Y-114808000D01*
X164338000Y-124968000D02*
X171958000Y-124968000D01*
X164338000Y-114808000D02*
X164338000Y-124968000D01*
X171958000Y-114808000D02*
X164338000Y-114808000D01*
X170688000Y-114808000D02*
X170688000Y-124968000D01*
%TO.C,J6*%
X202946000Y-126492000D02*
X202946000Y-136652000D01*
X210566000Y-126492000D02*
X202946000Y-126492000D01*
X210566000Y-136652000D02*
X210566000Y-126492000D01*
X202946000Y-136652000D02*
X210566000Y-136652000D01*
X204216000Y-136652000D02*
X204216000Y-126492000D01*
%TO.C,Q1*%
X190736000Y-133594000D02*
X189276000Y-133594000D01*
X190736000Y-130434000D02*
X188576000Y-130434000D01*
X190736000Y-130434000D02*
X190736000Y-131364000D01*
X190736000Y-133594000D02*
X190736000Y-132664000D01*
%TO.C,R1*%
X175850733Y-129034000D02*
X176193267Y-129034000D01*
X175850733Y-128014000D02*
X176193267Y-128014000D01*
%TO.C,R2*%
X176193267Y-133098000D02*
X175850733Y-133098000D01*
X176193267Y-132078000D02*
X175850733Y-132078000D01*
%TO.C,R3*%
X182313733Y-128780000D02*
X182656267Y-128780000D01*
X182313733Y-127760000D02*
X182656267Y-127760000D01*
%TO.C,R4*%
X182558267Y-132014000D02*
X182215733Y-132014000D01*
X182558267Y-133034000D02*
X182215733Y-133034000D01*
%TD*%
%TO.C,J6-ALT*%
D12*
X212568285Y-127609000D02*
X213104000Y-127609000D01*
X213211142Y-127644714D01*
X213282571Y-127716142D01*
X213318285Y-127823285D01*
X213318285Y-127894714D01*
X212568285Y-126930428D02*
X212568285Y-127073285D01*
X212604000Y-127144714D01*
X212639714Y-127180428D01*
X212746857Y-127251857D01*
X212889714Y-127287571D01*
X213175428Y-127287571D01*
X213246857Y-127251857D01*
X213282571Y-127216142D01*
X213318285Y-127144714D01*
X213318285Y-127001857D01*
X213282571Y-126930428D01*
X213246857Y-126894714D01*
X213175428Y-126859000D01*
X212996857Y-126859000D01*
X212925428Y-126894714D01*
X212889714Y-126930428D01*
X212854000Y-127001857D01*
X212854000Y-127144714D01*
X212889714Y-127216142D01*
X212925428Y-127251857D01*
X212996857Y-127287571D01*
X213032571Y-126537571D02*
X213032571Y-125966142D01*
X213104000Y-125644714D02*
X213104000Y-125287571D01*
X213318285Y-125716142D02*
X212568285Y-125466142D01*
X213318285Y-125216142D01*
X213318285Y-124609000D02*
X213318285Y-124966142D01*
X212568285Y-124966142D01*
X212568285Y-124466142D02*
X212568285Y-124037571D01*
X213318285Y-124251857D02*
X212568285Y-124251857D01*
%TO.C,J1-ALT*%
X197985333Y-103846380D02*
X197985333Y-104560666D01*
X197937714Y-104703523D01*
X197842476Y-104798761D01*
X197699619Y-104846380D01*
X197604380Y-104846380D01*
X198985333Y-104846380D02*
X198413904Y-104846380D01*
X198699619Y-104846380D02*
X198699619Y-103846380D01*
X198604380Y-103989238D01*
X198509142Y-104084476D01*
X198413904Y-104132095D01*
X199413904Y-104465428D02*
X200175809Y-104465428D01*
X200604380Y-104560666D02*
X201080571Y-104560666D01*
X200509142Y-104846380D02*
X200842476Y-103846380D01*
X201175809Y-104846380D01*
X201985333Y-104846380D02*
X201509142Y-104846380D01*
X201509142Y-103846380D01*
X202175809Y-103846380D02*
X202747238Y-103846380D01*
X202461523Y-104846380D02*
X202461523Y-103846380D01*
%TO.C,J5-ALT*%
X165981333Y-125944380D02*
X165981333Y-126658666D01*
X165933714Y-126801523D01*
X165838476Y-126896761D01*
X165695619Y-126944380D01*
X165600380Y-126944380D01*
X166933714Y-125944380D02*
X166457523Y-125944380D01*
X166409904Y-126420571D01*
X166457523Y-126372952D01*
X166552761Y-126325333D01*
X166790857Y-126325333D01*
X166886095Y-126372952D01*
X166933714Y-126420571D01*
X166981333Y-126515809D01*
X166981333Y-126753904D01*
X166933714Y-126849142D01*
X166886095Y-126896761D01*
X166790857Y-126944380D01*
X166552761Y-126944380D01*
X166457523Y-126896761D01*
X166409904Y-126849142D01*
X167409904Y-126563428D02*
X168171809Y-126563428D01*
X168600380Y-126658666D02*
X169076571Y-126658666D01*
X168505142Y-126944380D02*
X168838476Y-125944380D01*
X169171809Y-126944380D01*
X169981333Y-126944380D02*
X169505142Y-126944380D01*
X169505142Y-125944380D01*
X170171809Y-125944380D02*
X170743238Y-125944380D01*
X170457523Y-126944380D02*
X170457523Y-125944380D01*
%TO.C,Q2*%
D19*
X201498228Y-124537457D02*
X201450522Y-124632870D01*
X201355109Y-124728283D01*
X201211990Y-124871402D01*
X201164283Y-124966815D01*
X201164283Y-125062228D01*
X201402816Y-125014522D02*
X201355109Y-125109935D01*
X201259696Y-125205347D01*
X201068871Y-125253054D01*
X200734926Y-125253054D01*
X200544100Y-125205347D01*
X200448687Y-125109935D01*
X200400981Y-125014522D01*
X200400981Y-124823696D01*
X200448687Y-124728283D01*
X200544100Y-124632870D01*
X200734926Y-124585164D01*
X201068871Y-124585164D01*
X201259696Y-124632870D01*
X201355109Y-124728283D01*
X201402816Y-124823696D01*
X201402816Y-125014522D01*
X200496393Y-124203512D02*
X200448687Y-124155806D01*
X200400981Y-124060393D01*
X200400981Y-123821861D01*
X200448687Y-123726448D01*
X200496393Y-123678742D01*
X200591806Y-123631035D01*
X200687219Y-123631035D01*
X200830338Y-123678742D01*
X201402816Y-124251219D01*
X201402816Y-123631035D01*
%TO.C,A1*%
D12*
X188769714Y-117768666D02*
X189245904Y-117768666D01*
X188674476Y-118054380D02*
X189007809Y-117054380D01*
X189341142Y-118054380D01*
X190198285Y-118054380D02*
X189626857Y-118054380D01*
X189912571Y-118054380D02*
X189912571Y-117054380D01*
X189817333Y-117197238D01*
X189722095Y-117292476D01*
X189626857Y-117340095D01*
X190373047Y-113863428D02*
X191134952Y-113863428D01*
X190373047Y-107513428D02*
X191134952Y-107513428D01*
X190754000Y-107894380D02*
X190754000Y-107132476D01*
X175133047Y-113863428D02*
X175894952Y-113863428D01*
X175133047Y-107513428D02*
X175894952Y-107513428D01*
X175514000Y-107894380D02*
X175514000Y-107132476D01*
%TO.C,U1*%
X187436095Y-65732380D02*
X187436095Y-66541904D01*
X187483714Y-66637142D01*
X187531333Y-66684761D01*
X187626571Y-66732380D01*
X187817047Y-66732380D01*
X187912285Y-66684761D01*
X187959904Y-66637142D01*
X188007523Y-66541904D01*
X188007523Y-65732380D01*
X189007523Y-66732380D02*
X188436095Y-66732380D01*
X188721809Y-66732380D02*
X188721809Y-65732380D01*
X188626571Y-65875238D01*
X188531333Y-65970476D01*
X188436095Y-66018095D01*
X178316095Y-95418571D02*
X178649428Y-95418571D01*
X178792285Y-95942380D02*
X178316095Y-95942380D01*
X178316095Y-94942380D01*
X178792285Y-94942380D01*
X179220857Y-95275714D02*
X179220857Y-95942380D01*
X179220857Y-95370952D02*
X179268476Y-95323333D01*
X179363714Y-95275714D01*
X179506571Y-95275714D01*
X179601809Y-95323333D01*
X179649428Y-95418571D01*
X179649428Y-95942380D01*
X180554190Y-95942380D02*
X180554190Y-95418571D01*
X180506571Y-95323333D01*
X180411333Y-95275714D01*
X180220857Y-95275714D01*
X180125619Y-95323333D01*
X180554190Y-95894761D02*
X180458952Y-95942380D01*
X180220857Y-95942380D01*
X180125619Y-95894761D01*
X180078000Y-95799523D01*
X180078000Y-95704285D01*
X180125619Y-95609047D01*
X180220857Y-95561428D01*
X180458952Y-95561428D01*
X180554190Y-95513809D01*
X181030380Y-95942380D02*
X181030380Y-94942380D01*
X181030380Y-95323333D02*
X181125619Y-95275714D01*
X181316095Y-95275714D01*
X181411333Y-95323333D01*
X181458952Y-95370952D01*
X181506571Y-95466190D01*
X181506571Y-95751904D01*
X181458952Y-95847142D01*
X181411333Y-95894761D01*
X181316095Y-95942380D01*
X181125619Y-95942380D01*
X181030380Y-95894761D01*
X182078000Y-95942380D02*
X181982761Y-95894761D01*
X181935142Y-95799523D01*
X181935142Y-94942380D01*
X182839904Y-95894761D02*
X182744666Y-95942380D01*
X182554190Y-95942380D01*
X182458952Y-95894761D01*
X182411333Y-95799523D01*
X182411333Y-95418571D01*
X182458952Y-95323333D01*
X182554190Y-95275714D01*
X182744666Y-95275714D01*
X182839904Y-95323333D01*
X182887523Y-95418571D01*
X182887523Y-95513809D01*
X182411333Y-95609047D01*
X194698952Y-95418571D02*
X194841809Y-95466190D01*
X194889428Y-95513809D01*
X194937047Y-95609047D01*
X194937047Y-95751904D01*
X194889428Y-95847142D01*
X194841809Y-95894761D01*
X194746571Y-95942380D01*
X194365619Y-95942380D01*
X194365619Y-94942380D01*
X194698952Y-94942380D01*
X194794190Y-94990000D01*
X194841809Y-95037619D01*
X194889428Y-95132857D01*
X194889428Y-95228095D01*
X194841809Y-95323333D01*
X194794190Y-95370952D01*
X194698952Y-95418571D01*
X194365619Y-95418571D01*
X195508476Y-95942380D02*
X195413238Y-95894761D01*
X195365619Y-95847142D01*
X195318000Y-95751904D01*
X195318000Y-95466190D01*
X195365619Y-95370952D01*
X195413238Y-95323333D01*
X195508476Y-95275714D01*
X195651333Y-95275714D01*
X195746571Y-95323333D01*
X195794190Y-95370952D01*
X195841809Y-95466190D01*
X195841809Y-95751904D01*
X195794190Y-95847142D01*
X195746571Y-95894761D01*
X195651333Y-95942380D01*
X195508476Y-95942380D01*
X196413238Y-95942380D02*
X196318000Y-95894761D01*
X196270380Y-95847142D01*
X196222761Y-95751904D01*
X196222761Y-95466190D01*
X196270380Y-95370952D01*
X196318000Y-95323333D01*
X196413238Y-95275714D01*
X196556095Y-95275714D01*
X196651333Y-95323333D01*
X196698952Y-95370952D01*
X196746571Y-95466190D01*
X196746571Y-95751904D01*
X196698952Y-95847142D01*
X196651333Y-95894761D01*
X196556095Y-95942380D01*
X196413238Y-95942380D01*
X197032285Y-95275714D02*
X197413238Y-95275714D01*
X197175142Y-94942380D02*
X197175142Y-95799523D01*
X197222761Y-95894761D01*
X197318000Y-95942380D01*
X197413238Y-95942380D01*
X186936095Y-98752380D02*
X186936095Y-99561904D01*
X186983714Y-99657142D01*
X187031333Y-99704761D01*
X187126571Y-99752380D01*
X187317047Y-99752380D01*
X187412285Y-99704761D01*
X187459904Y-99657142D01*
X187507523Y-99561904D01*
X187507523Y-98752380D01*
X187936095Y-99704761D02*
X188078952Y-99752380D01*
X188317047Y-99752380D01*
X188412285Y-99704761D01*
X188459904Y-99657142D01*
X188507523Y-99561904D01*
X188507523Y-99466666D01*
X188459904Y-99371428D01*
X188412285Y-99323809D01*
X188317047Y-99276190D01*
X188126571Y-99228571D01*
X188031333Y-99180952D01*
X187983714Y-99133333D01*
X187936095Y-99038095D01*
X187936095Y-98942857D01*
X187983714Y-98847619D01*
X188031333Y-98800000D01*
X188126571Y-98752380D01*
X188364666Y-98752380D01*
X188507523Y-98800000D01*
X189269428Y-99228571D02*
X189412285Y-99276190D01*
X189459904Y-99323809D01*
X189507523Y-99419047D01*
X189507523Y-99561904D01*
X189459904Y-99657142D01*
X189412285Y-99704761D01*
X189317047Y-99752380D01*
X188936095Y-99752380D01*
X188936095Y-98752380D01*
X189269428Y-98752380D01*
X189364666Y-98800000D01*
X189412285Y-98847619D01*
X189459904Y-98942857D01*
X189459904Y-99038095D01*
X189412285Y-99133333D01*
X189364666Y-99180952D01*
X189269428Y-99228571D01*
X188936095Y-99228571D01*
%TO.C,D1*%
D20*
X199202523Y-133640380D02*
X197932523Y-133640380D01*
X197932523Y-133338000D01*
X197993000Y-133156571D01*
X198113952Y-133035619D01*
X198234904Y-132975142D01*
X198476809Y-132914666D01*
X198658238Y-132914666D01*
X198900142Y-132975142D01*
X199021095Y-133035619D01*
X199142047Y-133156571D01*
X199202523Y-133338000D01*
X199202523Y-133640380D01*
X199202523Y-131705142D02*
X199202523Y-132430857D01*
X199202523Y-132068000D02*
X197932523Y-132068000D01*
X198113952Y-132188952D01*
X198234904Y-132309904D01*
X198295380Y-132430857D01*
%TO.C,J1*%
D12*
X211034380Y-117681333D02*
X211748666Y-117681333D01*
X211891523Y-117728952D01*
X211986761Y-117824190D01*
X212034380Y-117967047D01*
X212034380Y-118062285D01*
X212034380Y-116681333D02*
X212034380Y-117252761D01*
X212034380Y-116967047D02*
X211034380Y-116967047D01*
X211177238Y-117062285D01*
X211272476Y-117157523D01*
X211320095Y-117252761D01*
%TO.C,J2*%
X175728380Y-138001333D02*
X176442666Y-138001333D01*
X176585523Y-138048952D01*
X176680761Y-138144190D01*
X176728380Y-138287047D01*
X176728380Y-138382285D01*
X175823619Y-137572761D02*
X175776000Y-137525142D01*
X175728380Y-137429904D01*
X175728380Y-137191809D01*
X175776000Y-137096571D01*
X175823619Y-137048952D01*
X175918857Y-137001333D01*
X176014095Y-137001333D01*
X176156952Y-137048952D01*
X176728380Y-137620380D01*
X176728380Y-137001333D01*
%TO.C,J3*%
X168830666Y-53002380D02*
X168830666Y-53716666D01*
X168783047Y-53859523D01*
X168687809Y-53954761D01*
X168544952Y-54002380D01*
X168449714Y-54002380D01*
X169211619Y-53002380D02*
X169830666Y-53002380D01*
X169497333Y-53383333D01*
X169640190Y-53383333D01*
X169735428Y-53430952D01*
X169783047Y-53478571D01*
X169830666Y-53573809D01*
X169830666Y-53811904D01*
X169783047Y-53907142D01*
X169735428Y-53954761D01*
X169640190Y-54002380D01*
X169354476Y-54002380D01*
X169259238Y-53954761D01*
X169211619Y-53907142D01*
%TO.C,J4*%
X207184666Y-52919380D02*
X207184666Y-53633666D01*
X207137047Y-53776523D01*
X207041809Y-53871761D01*
X206898952Y-53919380D01*
X206803714Y-53919380D01*
X208089428Y-53252714D02*
X208089428Y-53919380D01*
X207851333Y-52871761D02*
X207613238Y-53586047D01*
X208232285Y-53586047D01*
%TO.C,J5*%
X167814666Y-112990380D02*
X167814666Y-113704666D01*
X167767047Y-113847523D01*
X167671809Y-113942761D01*
X167528952Y-113990380D01*
X167433714Y-113990380D01*
X168767047Y-112990380D02*
X168290857Y-112990380D01*
X168243238Y-113466571D01*
X168290857Y-113418952D01*
X168386095Y-113371333D01*
X168624190Y-113371333D01*
X168719428Y-113418952D01*
X168767047Y-113466571D01*
X168814666Y-113561809D01*
X168814666Y-113799904D01*
X168767047Y-113895142D01*
X168719428Y-113942761D01*
X168624190Y-113990380D01*
X168386095Y-113990380D01*
X168290857Y-113942761D01*
X168243238Y-113895142D01*
%TO.C,J6*%
X204430380Y-138509333D02*
X205144666Y-138509333D01*
X205287523Y-138556952D01*
X205382761Y-138652190D01*
X205430380Y-138795047D01*
X205430380Y-138890285D01*
X204430380Y-137604571D02*
X204430380Y-137795047D01*
X204478000Y-137890285D01*
X204525619Y-137937904D01*
X204668476Y-138033142D01*
X204858952Y-138080761D01*
X205239904Y-138080761D01*
X205335142Y-138033142D01*
X205382761Y-137985523D01*
X205430380Y-137890285D01*
X205430380Y-137699809D01*
X205382761Y-137604571D01*
X205335142Y-137556952D01*
X205239904Y-137509333D01*
X205001809Y-137509333D01*
X204906571Y-137556952D01*
X204858952Y-137604571D01*
X204811333Y-137699809D01*
X204811333Y-137890285D01*
X204858952Y-137985523D01*
X204906571Y-138033142D01*
X205001809Y-138080761D01*
%TO.C,Q1*%
X190912761Y-130595619D02*
X190817523Y-130548000D01*
X190722285Y-130452761D01*
X190579428Y-130309904D01*
X190484190Y-130262285D01*
X190388952Y-130262285D01*
X190436571Y-130500380D02*
X190341333Y-130452761D01*
X190246095Y-130357523D01*
X190198476Y-130167047D01*
X190198476Y-129833714D01*
X190246095Y-129643238D01*
X190341333Y-129548000D01*
X190436571Y-129500380D01*
X190627047Y-129500380D01*
X190722285Y-129548000D01*
X190817523Y-129643238D01*
X190865142Y-129833714D01*
X190865142Y-130167047D01*
X190817523Y-130357523D01*
X190722285Y-130452761D01*
X190627047Y-130500380D01*
X190436571Y-130500380D01*
X191817523Y-130500380D02*
X191246095Y-130500380D01*
X191531809Y-130500380D02*
X191531809Y-129500380D01*
X191436571Y-129643238D01*
X191341333Y-129738476D01*
X191246095Y-129786095D01*
%TO.C,R1*%
X175855333Y-127546380D02*
X175522000Y-127070190D01*
X175283904Y-127546380D02*
X175283904Y-126546380D01*
X175664857Y-126546380D01*
X175760095Y-126594000D01*
X175807714Y-126641619D01*
X175855333Y-126736857D01*
X175855333Y-126879714D01*
X175807714Y-126974952D01*
X175760095Y-127022571D01*
X175664857Y-127070190D01*
X175283904Y-127070190D01*
X176807714Y-127546380D02*
X176236285Y-127546380D01*
X176522000Y-127546380D02*
X176522000Y-126546380D01*
X176426761Y-126689238D01*
X176331523Y-126784476D01*
X176236285Y-126832095D01*
%TO.C,R2*%
X175855333Y-134470380D02*
X175522000Y-133994190D01*
X175283904Y-134470380D02*
X175283904Y-133470380D01*
X175664857Y-133470380D01*
X175760095Y-133518000D01*
X175807714Y-133565619D01*
X175855333Y-133660857D01*
X175855333Y-133803714D01*
X175807714Y-133898952D01*
X175760095Y-133946571D01*
X175664857Y-133994190D01*
X175283904Y-133994190D01*
X176236285Y-133565619D02*
X176283904Y-133518000D01*
X176379142Y-133470380D01*
X176617238Y-133470380D01*
X176712476Y-133518000D01*
X176760095Y-133565619D01*
X176807714Y-133660857D01*
X176807714Y-133756095D01*
X176760095Y-133898952D01*
X176188666Y-134470380D01*
X176807714Y-134470380D01*
%TO.C,R3*%
X182318333Y-127292380D02*
X181985000Y-126816190D01*
X181746904Y-127292380D02*
X181746904Y-126292380D01*
X182127857Y-126292380D01*
X182223095Y-126340000D01*
X182270714Y-126387619D01*
X182318333Y-126482857D01*
X182318333Y-126625714D01*
X182270714Y-126720952D01*
X182223095Y-126768571D01*
X182127857Y-126816190D01*
X181746904Y-126816190D01*
X182651666Y-126292380D02*
X183270714Y-126292380D01*
X182937380Y-126673333D01*
X183080238Y-126673333D01*
X183175476Y-126720952D01*
X183223095Y-126768571D01*
X183270714Y-126863809D01*
X183270714Y-127101904D01*
X183223095Y-127197142D01*
X183175476Y-127244761D01*
X183080238Y-127292380D01*
X182794523Y-127292380D01*
X182699285Y-127244761D01*
X182651666Y-127197142D01*
%TO.C,R4*%
X182220333Y-134406380D02*
X181887000Y-133930190D01*
X181648904Y-134406380D02*
X181648904Y-133406380D01*
X182029857Y-133406380D01*
X182125095Y-133454000D01*
X182172714Y-133501619D01*
X182220333Y-133596857D01*
X182220333Y-133739714D01*
X182172714Y-133834952D01*
X182125095Y-133882571D01*
X182029857Y-133930190D01*
X181648904Y-133930190D01*
X183077476Y-133739714D02*
X183077476Y-134406380D01*
X182839380Y-133358761D02*
X182601285Y-134073047D01*
X183220333Y-134073047D01*
%TD*%
M02*
