%TF.GenerationSoftware,KiCad,Pcbnew,(5.1.6)-1*%
%TF.CreationDate,2021-01-28T02:18:39-06:00*%
%TF.ProjectId,tool_checkout_cabinet_modules,746f6f6c-5f63-4686-9563-6b6f75745f63,rev?*%
%TF.SameCoordinates,Original*%
%TF.FileFunction,Paste,Bot*%
%TF.FilePolarity,Positive*%
%FSLAX46Y46*%
G04 Gerber Fmt 4.6, Leading zero omitted, Abs format (unit mm)*
G04 Created by KiCad (PCBNEW (5.1.6)-1) date 2021-01-28 02:18:39*
%MOMM*%
%LPD*%
G01*
G04 APERTURE LIST*
%ADD10C,0.100000*%
G04 APERTURE END LIST*
D10*
%TO.C,A1*%
G36*
X175220539Y-117040353D02*
G01*
X175028040Y-117002063D01*
X174840220Y-116945088D01*
X174658890Y-116869979D01*
X174485795Y-116777457D01*
X174322601Y-116668415D01*
X174170882Y-116543902D01*
X174032098Y-116405118D01*
X173907585Y-116253399D01*
X173798543Y-116090205D01*
X173706021Y-115917110D01*
X173630912Y-115735780D01*
X173573937Y-115547960D01*
X173535647Y-115355461D01*
X173516409Y-115160135D01*
X173516409Y-114963865D01*
X173535647Y-114768539D01*
X173573937Y-114576040D01*
X173630912Y-114388220D01*
X173706021Y-114206890D01*
X173798543Y-114033795D01*
X173907585Y-113870601D01*
X174032098Y-113718882D01*
X174170882Y-113580098D01*
X174322601Y-113455585D01*
X174485795Y-113346543D01*
X174658890Y-113254021D01*
X174840220Y-113178912D01*
X175028040Y-113121937D01*
X175220539Y-113083647D01*
X175415865Y-113064409D01*
X175612135Y-113064409D01*
X175807461Y-113083647D01*
X175999960Y-113121937D01*
X176187780Y-113178912D01*
X176369110Y-113254021D01*
X176542205Y-113346543D01*
X176705399Y-113455585D01*
X176857118Y-113580098D01*
X176995902Y-113718882D01*
X177120415Y-113870601D01*
X177229457Y-114033795D01*
X177321979Y-114206890D01*
X177397088Y-114388220D01*
X177454063Y-114576040D01*
X177492353Y-114768539D01*
X177511591Y-114963865D01*
X177511591Y-115160135D01*
X177492353Y-115355461D01*
X177454063Y-115547960D01*
X177397088Y-115735780D01*
X177321979Y-115917110D01*
X177229457Y-116090205D01*
X177120415Y-116253399D01*
X176995902Y-116405118D01*
X176857118Y-116543902D01*
X176705399Y-116668415D01*
X176542205Y-116777457D01*
X176369110Y-116869979D01*
X176187780Y-116945088D01*
X175999960Y-117002063D01*
X175807461Y-117040353D01*
X175612135Y-117059591D01*
X175415865Y-117059591D01*
X175220539Y-117040353D01*
G37*
%TD*%
M02*
