%TF.GenerationSoftware,KiCad,Pcbnew,(5.1.6)-1*%
%TF.CreationDate,2021-01-28T02:18:38-06:00*%
%TF.ProjectId,tool_checkout_cabinet_modules,746f6f6c-5f63-4686-9563-6b6f75745f63,rev?*%
%TF.SameCoordinates,Original*%
%TF.FileFunction,Copper,L1,Top*%
%TF.FilePolarity,Positive*%
%FSLAX46Y46*%
G04 Gerber Fmt 4.6, Leading zero omitted, Abs format (unit mm)*
G04 Created by KiCad (PCBNEW (5.1.6)-1) date 2021-01-28 02:18:38*
%MOMM*%
%LPD*%
G01*
G04 APERTURE LIST*
%TA.AperFunction,ComponentPad*%
%ADD10O,1.700000X1.700000*%
%TD*%
%TA.AperFunction,ComponentPad*%
%ADD11R,1.700000X1.700000*%
%TD*%
%TA.AperFunction,SMDPad,CuDef*%
%ADD12R,6.320000X5.670000*%
%TD*%
%TA.AperFunction,SMDPad,CuDef*%
%ADD13R,3.020000X0.970000*%
%TD*%
%TA.AperFunction,ComponentPad*%
%ADD14C,4.000000*%
%TD*%
%TA.AperFunction,ComponentPad*%
%ADD15C,0.100000*%
%TD*%
%TA.AperFunction,ComponentPad*%
%ADD16C,1.524000*%
%TD*%
%TA.AperFunction,ComponentPad*%
%ADD17R,1.524000X1.524000*%
%TD*%
%TA.AperFunction,SMDPad,CuDef*%
%ADD18R,1.520000X1.500000*%
%TD*%
%TA.AperFunction,SMDPad,CuDef*%
%ADD19R,2.200000X3.100000*%
%TD*%
%TA.AperFunction,ComponentPad*%
%ADD20C,3.000000*%
%TD*%
%TA.AperFunction,ComponentPad*%
%ADD21R,3.000000X3.000000*%
%TD*%
%TA.AperFunction,SMDPad,CuDef*%
%ADD22R,0.900000X0.800000*%
%TD*%
%TA.AperFunction,ViaPad*%
%ADD23C,0.800000*%
%TD*%
%TA.AperFunction,Conductor*%
%ADD24C,1.800000*%
%TD*%
%TA.AperFunction,Conductor*%
%ADD25C,0.250000*%
%TD*%
%TA.AperFunction,Conductor*%
%ADD26C,0.500000*%
%TD*%
G04 APERTURE END LIST*
D10*
%TO.P,J6-ALT,2*%
%TO.N,Net-(D1-Pad2)*%
X212598000Y-132588000D03*
D11*
%TO.P,J6-ALT,1*%
%TO.N,J6-12v*%
X212598000Y-130048000D03*
%TD*%
D10*
%TO.P,J1-ALT,2*%
%TO.N,J6-12v*%
X201168000Y-109728000D03*
D11*
%TO.P,J1-ALT,1*%
%TO.N,GND*%
X201168000Y-107188000D03*
%TD*%
D10*
%TO.P,J5-ALT,2*%
%TO.N,GND*%
X168148000Y-131572000D03*
D11*
%TO.P,J5-ALT,1*%
%TO.N,IO32*%
X168148000Y-129032000D03*
%TD*%
D12*
%TO.P,Q2,4*%
%TO.N,Net-(D1-Pad2)*%
X196496000Y-124968000D03*
D13*
%TO.P,Q2,3*%
%TO.N,GND*%
X189966000Y-127254000D03*
%TO.P,Q2,1*%
%TO.N,IO4*%
X189966000Y-122682000D03*
%TD*%
D14*
%TO.P,A1,2*%
%TO.N,GND*%
X190754000Y-115062000D03*
%TO.P,A1,1*%
%TO.N,J6-12v*%
X190754000Y-105918000D03*
%TA.AperFunction,ComponentPad*%
D15*
%TO.P,A1,4*%
%TO.N,GND*%
G36*
X175220539Y-117040353D02*
G01*
X175028040Y-117002063D01*
X174840220Y-116945088D01*
X174658890Y-116869979D01*
X174485795Y-116777457D01*
X174322601Y-116668415D01*
X174170882Y-116543902D01*
X174032098Y-116405118D01*
X173907585Y-116253399D01*
X173798543Y-116090205D01*
X173706021Y-115917110D01*
X173630912Y-115735780D01*
X173573937Y-115547960D01*
X173535647Y-115355461D01*
X173516409Y-115160135D01*
X173516409Y-114963865D01*
X173535647Y-114768539D01*
X173573937Y-114576040D01*
X173630912Y-114388220D01*
X173706021Y-114206890D01*
X173798543Y-114033795D01*
X173907585Y-113870601D01*
X174032098Y-113718882D01*
X174170882Y-113580098D01*
X174322601Y-113455585D01*
X174485795Y-113346543D01*
X174658890Y-113254021D01*
X174840220Y-113178912D01*
X175028040Y-113121937D01*
X175220539Y-113083647D01*
X175415865Y-113064409D01*
X175612135Y-113064409D01*
X175807461Y-113083647D01*
X175999960Y-113121937D01*
X176187780Y-113178912D01*
X176369110Y-113254021D01*
X176542205Y-113346543D01*
X176705399Y-113455585D01*
X176857118Y-113580098D01*
X176995902Y-113718882D01*
X177120415Y-113870601D01*
X177229457Y-114033795D01*
X177321979Y-114206890D01*
X177397088Y-114388220D01*
X177454063Y-114576040D01*
X177492353Y-114768539D01*
X177511591Y-114963865D01*
X177511591Y-115160135D01*
X177492353Y-115355461D01*
X177454063Y-115547960D01*
X177397088Y-115735780D01*
X177321979Y-115917110D01*
X177229457Y-116090205D01*
X177120415Y-116253399D01*
X176995902Y-116405118D01*
X176857118Y-116543902D01*
X176705399Y-116668415D01*
X176542205Y-116777457D01*
X176369110Y-116869979D01*
X176187780Y-116945088D01*
X175999960Y-117002063D01*
X175807461Y-117040353D01*
X175612135Y-117059591D01*
X175415865Y-117059591D01*
X175220539Y-117040353D01*
G37*
%TD.AperFunction*%
D14*
%TO.P,A1,3*%
%TO.N,+5V*%
X175514000Y-105918000D03*
%TD*%
D16*
%TO.P,U1,30*%
%TO.N,Net-(J4-Pad20)*%
X200898000Y-55810000D03*
%TO.P,U1,29*%
%TO.N,Net-(J4-Pad19)*%
X200898000Y-58350000D03*
%TO.P,U1,28*%
%TO.N,Net-(J4-Pad18)*%
X200898000Y-60890000D03*
%TO.P,U1,27*%
%TO.N,Net-(J4-Pad17)*%
X200898000Y-63430000D03*
%TO.P,U1,26*%
%TO.N,Net-(J4-Pad16)*%
X200898000Y-65970000D03*
%TO.P,U1,25*%
%TO.N,Net-(J4-Pad15)*%
X200898000Y-68510000D03*
%TO.P,U1,24*%
%TO.N,Net-(J4-Pad14)*%
X200898000Y-71050000D03*
%TO.P,U1,23*%
%TO.N,Net-(J4-Pad13)*%
X200898000Y-73590000D03*
%TO.P,U1,22*%
%TO.N,Net-(J4-Pad12)*%
X200898000Y-76130000D03*
%TO.P,U1,21*%
%TO.N,Net-(J4-Pad11)*%
X200898000Y-78670000D03*
%TO.P,U1,20*%
%TO.N,IO4*%
X200898000Y-81210000D03*
%TO.P,U1,19*%
%TO.N,Net-(J4-Pad9)*%
X200898000Y-83750000D03*
%TO.P,U1,18*%
%TO.N,Net-(J4-Pad8)*%
X200898000Y-86290000D03*
%TO.P,U1,17*%
%TO.N,GND*%
X200898000Y-88830000D03*
%TO.P,U1,16*%
%TO.N,Net-(J4-Pad6)*%
X200898000Y-91370000D03*
%TO.P,U1,15*%
%TO.N,+5V*%
X175498000Y-91370000D03*
%TO.P,U1,14*%
%TO.N,GND*%
X175498000Y-88830000D03*
%TO.P,U1,13*%
%TO.N,Net-(J3-Pad13)*%
X175498000Y-86290000D03*
%TO.P,U1,12*%
%TO.N,Net-(J3-Pad12)*%
X175498000Y-83750000D03*
%TO.P,U1,11*%
%TO.N,Net-(J3-Pad11)*%
X175498000Y-81210000D03*
%TO.P,U1,10*%
%TO.N,Net-(J3-Pad10)*%
X175498000Y-78670000D03*
%TO.P,U1,9*%
%TO.N,Net-(J3-Pad9)*%
X175498000Y-76130000D03*
%TO.P,U1,8*%
%TO.N,Net-(J3-Pad8)*%
X175498000Y-73590000D03*
%TO.P,U1,7*%
%TO.N,Net-(J3-Pad7)*%
X175498000Y-71050000D03*
%TO.P,U1,6*%
%TO.N,IO32*%
X175498000Y-68510000D03*
%TO.P,U1,5*%
%TO.N,IO35*%
X175498000Y-65970000D03*
%TO.P,U1,4*%
%TO.N,IO34*%
X175498000Y-63430000D03*
%TO.P,U1,3*%
%TO.N,Net-(J3-Pad3)*%
X175498000Y-60890000D03*
%TO.P,U1,2*%
%TO.N,Net-(J3-Pad2)*%
X175498000Y-58350000D03*
D17*
%TO.P,U1,1*%
%TO.N,Net-(J3-Pad1)*%
X175498000Y-55810000D03*
%TD*%
D18*
%TO.P,D1,2*%
%TO.N,Net-(D1-Pad2)*%
X198628000Y-134713000D03*
D19*
%TO.P,D1,1*%
%TO.N,J6-12v*%
X198628000Y-131493000D03*
%TD*%
D20*
%TO.P,J1,2*%
%TO.N,J6-12v*%
X206756000Y-119888000D03*
D21*
%TO.P,J1,1*%
%TO.N,GND*%
X206756000Y-114808000D03*
%TD*%
D20*
%TO.P,J2,4*%
%TO.N,Net-(J2-Pad4)*%
X179832000Y-141732000D03*
D21*
%TO.P,J2,1*%
%TO.N,J6-12v*%
X195072000Y-141732000D03*
D20*
%TO.P,J2,3*%
%TO.N,Net-(J2-Pad3)*%
X184912000Y-141732000D03*
%TO.P,J2,2*%
%TO.N,GND*%
X189992000Y-141732000D03*
%TD*%
D10*
%TO.P,J3,20*%
%TO.N,Net-(J3-Pad20)*%
X169164000Y-104140000D03*
%TO.P,J3,19*%
%TO.N,Net-(J3-Pad19)*%
X169164000Y-101600000D03*
%TO.P,J3,18*%
%TO.N,Net-(J3-Pad18)*%
X169164000Y-99060000D03*
%TO.P,J3,17*%
%TO.N,Net-(J3-Pad17)*%
X169164000Y-96520000D03*
%TO.P,J3,16*%
%TO.N,Net-(J3-Pad16)*%
X169164000Y-93980000D03*
%TO.P,J3,15*%
%TO.N,+5V*%
X169164000Y-91440000D03*
%TO.P,J3,14*%
%TO.N,GND*%
X169164000Y-88900000D03*
%TO.P,J3,13*%
%TO.N,Net-(J3-Pad13)*%
X169164000Y-86360000D03*
%TO.P,J3,12*%
%TO.N,Net-(J3-Pad12)*%
X169164000Y-83820000D03*
%TO.P,J3,11*%
%TO.N,Net-(J3-Pad11)*%
X169164000Y-81280000D03*
%TO.P,J3,10*%
%TO.N,Net-(J3-Pad10)*%
X169164000Y-78740000D03*
%TO.P,J3,9*%
%TO.N,Net-(J3-Pad9)*%
X169164000Y-76200000D03*
%TO.P,J3,8*%
%TO.N,Net-(J3-Pad8)*%
X169164000Y-73660000D03*
%TO.P,J3,7*%
%TO.N,Net-(J3-Pad7)*%
X169164000Y-71120000D03*
%TO.P,J3,6*%
%TO.N,IO32*%
X169164000Y-68580000D03*
%TO.P,J3,5*%
%TO.N,IO35*%
X169164000Y-66040000D03*
%TO.P,J3,4*%
%TO.N,IO34*%
X169164000Y-63500000D03*
%TO.P,J3,3*%
%TO.N,Net-(J3-Pad3)*%
X169164000Y-60960000D03*
%TO.P,J3,2*%
%TO.N,Net-(J3-Pad2)*%
X169164000Y-58420000D03*
D11*
%TO.P,J3,1*%
%TO.N,Net-(J3-Pad1)*%
X169164000Y-55880000D03*
%TD*%
D10*
%TO.P,J4,20*%
%TO.N,Net-(J4-Pad20)*%
X207518000Y-55880000D03*
%TO.P,J4,19*%
%TO.N,Net-(J4-Pad19)*%
X207518000Y-58420000D03*
%TO.P,J4,18*%
%TO.N,Net-(J4-Pad18)*%
X207518000Y-60960000D03*
%TO.P,J4,17*%
%TO.N,Net-(J4-Pad17)*%
X207518000Y-63500000D03*
%TO.P,J4,16*%
%TO.N,Net-(J4-Pad16)*%
X207518000Y-66040000D03*
%TO.P,J4,15*%
%TO.N,Net-(J4-Pad15)*%
X207518000Y-68580000D03*
%TO.P,J4,14*%
%TO.N,Net-(J4-Pad14)*%
X207518000Y-71120000D03*
%TO.P,J4,13*%
%TO.N,Net-(J4-Pad13)*%
X207518000Y-73660000D03*
%TO.P,J4,12*%
%TO.N,Net-(J4-Pad12)*%
X207518000Y-76200000D03*
%TO.P,J4,11*%
%TO.N,Net-(J4-Pad11)*%
X207518000Y-78740000D03*
%TO.P,J4,10*%
%TO.N,IO4*%
X207518000Y-81280000D03*
%TO.P,J4,9*%
%TO.N,Net-(J4-Pad9)*%
X207518000Y-83820000D03*
%TO.P,J4,8*%
%TO.N,Net-(J4-Pad8)*%
X207518000Y-86360000D03*
%TO.P,J4,7*%
%TO.N,GND*%
X207518000Y-88900000D03*
%TO.P,J4,6*%
%TO.N,Net-(J4-Pad6)*%
X207518000Y-91440000D03*
%TO.P,J4,5*%
%TO.N,Net-(J4-Pad5)*%
X207518000Y-93980000D03*
%TO.P,J4,4*%
%TO.N,Net-(J4-Pad4)*%
X207518000Y-96520000D03*
%TO.P,J4,3*%
%TO.N,Net-(J4-Pad3)*%
X207518000Y-99060000D03*
%TO.P,J4,2*%
%TO.N,Net-(J4-Pad2)*%
X207518000Y-101600000D03*
D11*
%TO.P,J4,1*%
%TO.N,Net-(J4-Pad1)*%
X207518000Y-104140000D03*
%TD*%
D20*
%TO.P,J5,2*%
%TO.N,GND*%
X168148000Y-117348000D03*
D21*
%TO.P,J5,1*%
%TO.N,IO32*%
X168148000Y-122428000D03*
%TD*%
D20*
%TO.P,J6,2*%
%TO.N,Net-(D1-Pad2)*%
X206756000Y-134112000D03*
D21*
%TO.P,J6,1*%
%TO.N,J6-12v*%
X206756000Y-129032000D03*
%TD*%
D22*
%TO.P,Q1,3*%
%TO.N,Net-(D1-Pad2)*%
X190976000Y-132014000D03*
%TO.P,Q1,2*%
%TO.N,GND*%
X188976000Y-132964000D03*
%TO.P,Q1,1*%
%TO.N,IO4*%
X188976000Y-131064000D03*
%TD*%
%TO.P,R1,2*%
%TO.N,IO35*%
%TA.AperFunction,SMDPad,CuDef*%
G36*
G01*
X176372000Y-128761500D02*
X176372000Y-128286500D01*
G75*
G02*
X176609500Y-128049000I237500J0D01*
G01*
X177184500Y-128049000D01*
G75*
G02*
X177422000Y-128286500I0J-237500D01*
G01*
X177422000Y-128761500D01*
G75*
G02*
X177184500Y-128999000I-237500J0D01*
G01*
X176609500Y-128999000D01*
G75*
G02*
X176372000Y-128761500I0J237500D01*
G01*
G37*
%TD.AperFunction*%
%TO.P,R1,1*%
%TO.N,GND*%
%TA.AperFunction,SMDPad,CuDef*%
G36*
G01*
X174622000Y-128761500D02*
X174622000Y-128286500D01*
G75*
G02*
X174859500Y-128049000I237500J0D01*
G01*
X175434500Y-128049000D01*
G75*
G02*
X175672000Y-128286500I0J-237500D01*
G01*
X175672000Y-128761500D01*
G75*
G02*
X175434500Y-128999000I-237500J0D01*
G01*
X174859500Y-128999000D01*
G75*
G02*
X174622000Y-128761500I0J237500D01*
G01*
G37*
%TD.AperFunction*%
%TD*%
%TO.P,R2,1*%
%TO.N,IO35*%
%TA.AperFunction,SMDPad,CuDef*%
G36*
G01*
X177422000Y-132350500D02*
X177422000Y-132825500D01*
G75*
G02*
X177184500Y-133063000I-237500J0D01*
G01*
X176609500Y-133063000D01*
G75*
G02*
X176372000Y-132825500I0J237500D01*
G01*
X176372000Y-132350500D01*
G75*
G02*
X176609500Y-132113000I237500J0D01*
G01*
X177184500Y-132113000D01*
G75*
G02*
X177422000Y-132350500I0J-237500D01*
G01*
G37*
%TD.AperFunction*%
%TO.P,R2,2*%
%TO.N,Net-(J2-Pad4)*%
%TA.AperFunction,SMDPad,CuDef*%
G36*
G01*
X175672000Y-132350500D02*
X175672000Y-132825500D01*
G75*
G02*
X175434500Y-133063000I-237500J0D01*
G01*
X174859500Y-133063000D01*
G75*
G02*
X174622000Y-132825500I0J237500D01*
G01*
X174622000Y-132350500D01*
G75*
G02*
X174859500Y-132113000I237500J0D01*
G01*
X175434500Y-132113000D01*
G75*
G02*
X175672000Y-132350500I0J-237500D01*
G01*
G37*
%TD.AperFunction*%
%TD*%
%TO.P,R3,2*%
%TO.N,IO34*%
%TA.AperFunction,SMDPad,CuDef*%
G36*
G01*
X182835000Y-128507500D02*
X182835000Y-128032500D01*
G75*
G02*
X183072500Y-127795000I237500J0D01*
G01*
X183647500Y-127795000D01*
G75*
G02*
X183885000Y-128032500I0J-237500D01*
G01*
X183885000Y-128507500D01*
G75*
G02*
X183647500Y-128745000I-237500J0D01*
G01*
X183072500Y-128745000D01*
G75*
G02*
X182835000Y-128507500I0J237500D01*
G01*
G37*
%TD.AperFunction*%
%TO.P,R3,1*%
%TO.N,GND*%
%TA.AperFunction,SMDPad,CuDef*%
G36*
G01*
X181085000Y-128507500D02*
X181085000Y-128032500D01*
G75*
G02*
X181322500Y-127795000I237500J0D01*
G01*
X181897500Y-127795000D01*
G75*
G02*
X182135000Y-128032500I0J-237500D01*
G01*
X182135000Y-128507500D01*
G75*
G02*
X181897500Y-128745000I-237500J0D01*
G01*
X181322500Y-128745000D01*
G75*
G02*
X181085000Y-128507500I0J237500D01*
G01*
G37*
%TD.AperFunction*%
%TD*%
%TO.P,R4,2*%
%TO.N,Net-(J2-Pad3)*%
%TA.AperFunction,SMDPad,CuDef*%
G36*
G01*
X182037000Y-132286500D02*
X182037000Y-132761500D01*
G75*
G02*
X181799500Y-132999000I-237500J0D01*
G01*
X181224500Y-132999000D01*
G75*
G02*
X180987000Y-132761500I0J237500D01*
G01*
X180987000Y-132286500D01*
G75*
G02*
X181224500Y-132049000I237500J0D01*
G01*
X181799500Y-132049000D01*
G75*
G02*
X182037000Y-132286500I0J-237500D01*
G01*
G37*
%TD.AperFunction*%
%TO.P,R4,1*%
%TO.N,IO34*%
%TA.AperFunction,SMDPad,CuDef*%
G36*
G01*
X183787000Y-132286500D02*
X183787000Y-132761500D01*
G75*
G02*
X183549500Y-132999000I-237500J0D01*
G01*
X182974500Y-132999000D01*
G75*
G02*
X182737000Y-132761500I0J237500D01*
G01*
X182737000Y-132286500D01*
G75*
G02*
X182974500Y-132049000I237500J0D01*
G01*
X183549500Y-132049000D01*
G75*
G02*
X183787000Y-132286500I0J-237500D01*
G01*
G37*
%TD.AperFunction*%
%TD*%
D23*
%TO.N,GND*%
X180086000Y-126746000D03*
X174752000Y-125730000D03*
X187198000Y-133096000D03*
X189992000Y-125730000D03*
X186055000Y-132715000D03*
X185293000Y-131953000D03*
X189966000Y-128244000D03*
%TO.N,Net-(D1-Pad2)*%
X194310000Y-135636000D03*
X195326000Y-135636000D03*
X193294000Y-135636000D03*
X192278000Y-135636000D03*
%TD*%
D24*
%TO.N,J6-12v*%
X192786000Y-105918000D02*
X190754000Y-105918000D01*
X206756000Y-119888000D02*
X201676000Y-119888000D01*
X197485000Y-115697000D02*
X197485000Y-110617000D01*
X201676000Y-119888000D02*
X197485000Y-115697000D01*
X197485000Y-110617000D02*
X192786000Y-105918000D01*
X201676000Y-119888000D02*
X201576000Y-119888000D01*
X198628000Y-131493000D02*
X199723000Y-131493000D01*
X202184000Y-129032000D02*
X206756000Y-129032000D01*
X199723000Y-131493000D02*
X202184000Y-129032000D01*
X202184000Y-129032000D02*
X202184000Y-124460000D01*
X202184000Y-136850002D02*
X202184000Y-129032000D01*
X195072000Y-141732000D02*
X197302002Y-141732000D01*
X197302002Y-141732000D02*
X202184000Y-136850002D01*
X202184000Y-120396000D02*
X201676000Y-119888000D01*
X202184000Y-124460000D02*
X202184000Y-120396000D01*
X198374000Y-109728000D02*
X197485000Y-110617000D01*
X201168000Y-109728000D02*
X198374000Y-109728000D01*
X206756000Y-129032000D02*
X210312000Y-129032000D01*
X211328000Y-130048000D02*
X210312000Y-129032000D01*
X212598000Y-130048000D02*
X211328000Y-130048000D01*
D25*
%TO.N,GND*%
X175428000Y-88900000D02*
X175498000Y-88830000D01*
D26*
X169164000Y-88900000D02*
X175428000Y-88900000D01*
X175147000Y-126125000D02*
X174752000Y-125730000D01*
X175147000Y-128524000D02*
X175147000Y-126125000D01*
X181610000Y-128270000D02*
X180086000Y-126746000D01*
X189966000Y-125248000D02*
X189992000Y-125222000D01*
D24*
X189966000Y-127254000D02*
X189966000Y-125248000D01*
X188734584Y-133096000D02*
X188789292Y-133150708D01*
X187198000Y-133096000D02*
X188734584Y-133096000D01*
X187198000Y-133096000D02*
X186436000Y-133096000D01*
X186436000Y-133096000D02*
X186055000Y-132715000D01*
X186055000Y-132715000D02*
X185420000Y-132080000D01*
X189966000Y-127254000D02*
X189966000Y-128244000D01*
X189966000Y-128244000D02*
X189966000Y-128244000D01*
D26*
X207448000Y-88830000D02*
X207518000Y-88900000D01*
X200898000Y-88830000D02*
X207448000Y-88830000D01*
D24*
%TO.N,+5V*%
X175514000Y-91386000D02*
X175498000Y-91370000D01*
X175514000Y-105918000D02*
X175514000Y-91386000D01*
D25*
X169234000Y-91370000D02*
X169164000Y-91440000D01*
D24*
X175498000Y-91370000D02*
X169234000Y-91370000D01*
D25*
%TO.N,Net-(J3-Pad13)*%
X169234000Y-86290000D02*
X169164000Y-86360000D01*
D26*
X175498000Y-86290000D02*
X169234000Y-86290000D01*
D25*
%TO.N,Net-(J3-Pad12)*%
X175428000Y-83820000D02*
X175498000Y-83750000D01*
D26*
X169164000Y-83820000D02*
X175428000Y-83820000D01*
D25*
%TO.N,Net-(J3-Pad11)*%
X169234000Y-81210000D02*
X169164000Y-81280000D01*
D26*
X175498000Y-81210000D02*
X169234000Y-81210000D01*
D25*
%TO.N,Net-(J3-Pad10)*%
X175428000Y-78740000D02*
X175498000Y-78670000D01*
D26*
X169164000Y-78740000D02*
X175428000Y-78740000D01*
D25*
%TO.N,Net-(J3-Pad9)*%
X175428000Y-76200000D02*
X175498000Y-76130000D01*
D26*
X169164000Y-76200000D02*
X175428000Y-76200000D01*
D25*
%TO.N,Net-(J3-Pad8)*%
X169234000Y-73590000D02*
X169164000Y-73660000D01*
D26*
X175498000Y-73590000D02*
X169234000Y-73590000D01*
D25*
%TO.N,Net-(J3-Pad7)*%
X169234000Y-71050000D02*
X169164000Y-71120000D01*
D26*
X175498000Y-71050000D02*
X169234000Y-71050000D01*
D25*
%TO.N,Net-(J3-Pad3)*%
X175428000Y-60960000D02*
X175498000Y-60890000D01*
D26*
X169164000Y-60960000D02*
X175428000Y-60960000D01*
D25*
%TO.N,Net-(J3-Pad2)*%
X175428000Y-58420000D02*
X175498000Y-58350000D01*
D26*
X169164000Y-58420000D02*
X175428000Y-58420000D01*
%TO.N,Net-(J4-Pad6)*%
X200968000Y-91440000D02*
X200898000Y-91370000D01*
X207518000Y-91440000D02*
X200968000Y-91440000D01*
%TO.N,Net-(J4-Pad8)*%
X207448000Y-86290000D02*
X207518000Y-86360000D01*
X200898000Y-86290000D02*
X207448000Y-86290000D01*
%TO.N,Net-(J4-Pad9)*%
X200968000Y-83820000D02*
X200898000Y-83750000D01*
X207518000Y-83820000D02*
X200968000Y-83820000D01*
%TO.N,Net-(J4-Pad11)*%
X207448000Y-78670000D02*
X207518000Y-78740000D01*
X200898000Y-78670000D02*
X207448000Y-78670000D01*
%TO.N,Net-(J4-Pad12)*%
X200968000Y-76200000D02*
X200898000Y-76130000D01*
X207518000Y-76200000D02*
X200968000Y-76200000D01*
%TO.N,Net-(J4-Pad13)*%
X200968000Y-73660000D02*
X200898000Y-73590000D01*
X207518000Y-73660000D02*
X200968000Y-73660000D01*
%TO.N,Net-(J4-Pad15)*%
X207448000Y-68510000D02*
X207518000Y-68580000D01*
X200898000Y-68510000D02*
X207448000Y-68510000D01*
%TO.N,Net-(J4-Pad16)*%
X207448000Y-65970000D02*
X207518000Y-66040000D01*
X200898000Y-65970000D02*
X207448000Y-65970000D01*
%TO.N,Net-(J4-Pad17)*%
X207448000Y-63430000D02*
X207518000Y-63500000D01*
X200898000Y-63430000D02*
X207448000Y-63430000D01*
%TO.N,Net-(J4-Pad18)*%
X207448000Y-60890000D02*
X207518000Y-60960000D01*
X200898000Y-60890000D02*
X207448000Y-60890000D01*
%TO.N,Net-(J4-Pad19)*%
X207448000Y-58350000D02*
X207518000Y-58420000D01*
X200898000Y-58350000D02*
X207448000Y-58350000D01*
%TO.N,IO32*%
X169234000Y-68510000D02*
X169164000Y-68580000D01*
X175498000Y-68510000D02*
X169234000Y-68510000D01*
X168148000Y-122428000D02*
X169898000Y-122428000D01*
X179832000Y-71374000D02*
X176968000Y-68510000D01*
X179832000Y-118364000D02*
X179832000Y-71374000D01*
X176968000Y-68510000D02*
X175498000Y-68510000D01*
X168148000Y-122428000D02*
X175768000Y-122428000D01*
X175768000Y-122428000D02*
X179832000Y-118364000D01*
X168148000Y-122428000D02*
X168148000Y-129032000D01*
%TO.N,IO4*%
X200968000Y-81280000D02*
X200898000Y-81210000D01*
X207518000Y-81280000D02*
X200968000Y-81280000D01*
X200898000Y-81210000D02*
X198190000Y-81210000D01*
X196596000Y-82804000D02*
X195580000Y-83820000D01*
X198190000Y-81210000D02*
X196596000Y-82804000D01*
X188976000Y-131064000D02*
X187198000Y-129286000D01*
X189966000Y-122682000D02*
X188722000Y-122682000D01*
X187198000Y-129286000D02*
X187198000Y-121158000D01*
X188722000Y-122682000D02*
X187198000Y-121158000D01*
X187198000Y-92202000D02*
X190500000Y-88900000D01*
X187198000Y-104648000D02*
X187198000Y-92202000D01*
X187198000Y-121158000D02*
X187198000Y-104648000D01*
X187198000Y-104648000D02*
X187198000Y-104394000D01*
X189178990Y-90221010D02*
X190500000Y-88900000D01*
X190500000Y-88900000D02*
X196596000Y-82804000D01*
%TO.N,IO35*%
X169234000Y-65970000D02*
X169164000Y-66040000D01*
X175498000Y-65970000D02*
X169234000Y-65970000D01*
X176897000Y-128589486D02*
X176897000Y-128524000D01*
X178746000Y-65970000D02*
X175498000Y-65970000D01*
X176897000Y-132588000D02*
X176897000Y-128524000D01*
X176897000Y-128524000D02*
X176897000Y-124855000D01*
X183007000Y-118745000D02*
X183007000Y-70231000D01*
X176897000Y-124855000D02*
X183007000Y-118745000D01*
X183007000Y-70231000D02*
X178746000Y-65970000D01*
%TO.N,IO34*%
X169234000Y-63430000D02*
X169164000Y-63500000D01*
X175498000Y-63430000D02*
X169234000Y-63430000D01*
X183262000Y-128368000D02*
X183360000Y-128270000D01*
X181540000Y-63430000D02*
X175498000Y-63430000D01*
X183262000Y-132524000D02*
X183262000Y-128368000D01*
X185039000Y-127116000D02*
X185039000Y-66929000D01*
X183885000Y-128270000D02*
X185039000Y-127116000D01*
X183360000Y-128270000D02*
X183885000Y-128270000D01*
X185039000Y-66929000D02*
X181540000Y-63430000D01*
D25*
%TO.N,Net-(J3-Pad1)*%
X175428000Y-55880000D02*
X175498000Y-55810000D01*
D26*
X169164000Y-55880000D02*
X175428000Y-55880000D01*
%TO.N,Net-(J4-Pad20)*%
X207448000Y-55810000D02*
X207518000Y-55880000D01*
X200898000Y-55810000D02*
X207448000Y-55810000D01*
%TO.N,Net-(J4-Pad14)*%
X207448000Y-71050000D02*
X207518000Y-71120000D01*
X200898000Y-71050000D02*
X207448000Y-71050000D01*
%TO.N,Net-(J2-Pad4)*%
X179832000Y-137635000D02*
X179832000Y-141732000D01*
X175260000Y-132588000D02*
X175260000Y-133063000D01*
X175147000Y-132950000D02*
X175147000Y-132588000D01*
X179832000Y-137635000D02*
X175147000Y-132950000D01*
%TO.N,Net-(J2-Pad3)*%
X181512000Y-138332000D02*
X181512000Y-132524000D01*
X184912000Y-141732000D02*
X181512000Y-138332000D01*
D24*
%TO.N,Net-(D1-Pad2)*%
X196496000Y-124968000D02*
X196496000Y-126494000D01*
X194066002Y-132014000D02*
X190976000Y-132014000D01*
X195652001Y-130428001D02*
X194066002Y-132014000D01*
X195652001Y-126727999D02*
X195652001Y-130428001D01*
X196496000Y-125884000D02*
X195652001Y-126727999D01*
X196496000Y-124968000D02*
X196496000Y-125884000D01*
X194442002Y-132014000D02*
X190976000Y-132014000D01*
X198628000Y-134713000D02*
X197141002Y-134713000D01*
X197141002Y-134713000D02*
X194442002Y-132014000D01*
X196218002Y-135636000D02*
X197141002Y-134713000D01*
X194310000Y-135636000D02*
X195580000Y-135636000D01*
X195580000Y-135636000D02*
X196218002Y-135636000D01*
X194310000Y-135636000D02*
X193294000Y-135636000D01*
X193294000Y-135636000D02*
X192278000Y-135636000D01*
X192278000Y-135636000D02*
X192278000Y-135636000D01*
%TD*%
M02*
